<?xml version="1.0" encoding="UTF-8"?>
<svg xmlns="http://www.w3.org/2000/svg" xmlns:xlink="http://www.w3.org/1999/xlink" width="1313pt" height="611pt" viewBox="0 0 1313 611" version="1.1">
<defs>
<g>
<symbol overflow="visible" id="glyph0-0">
<path style="stroke:none;" d="M 0.640625 2.265625 L 0.640625 -9.015625 L 7.03125 -9.015625 L 7.03125 2.265625 Z M 1.359375 1.546875 L 6.328125 1.546875 L 6.328125 -8.296875 L 1.359375 -8.296875 Z M 1.359375 1.546875 "/>
</symbol>
<symbol overflow="visible" id="glyph0-1">
<path style="stroke:none;" d="M 6.84375 -9.015625 L 6.84375 -7.796875 C 6.363281 -8.023438 5.910156 -8.191406 5.484375 -8.296875 C 5.066406 -8.410156 4.660156 -8.46875 4.265625 -8.46875 C 3.578125 -8.46875 3.046875 -8.332031 2.671875 -8.0625 C 2.296875 -7.800781 2.109375 -7.425781 2.109375 -6.9375 C 2.109375 -6.519531 2.234375 -6.207031 2.484375 -6 C 2.734375 -5.789062 3.203125 -5.625 3.890625 -5.5 L 4.65625 -5.34375 C 5.59375 -5.15625 6.285156 -4.835938 6.734375 -4.390625 C 7.179688 -3.941406 7.40625 -3.335938 7.40625 -2.578125 C 7.40625 -1.671875 7.101562 -0.984375 6.5 -0.515625 C 5.894531 -0.046875 5.007812 0.1875 3.84375 0.1875 C 3.394531 0.1875 2.921875 0.132812 2.421875 0.03125 C 1.929688 -0.0703125 1.414062 -0.21875 0.875 -0.40625 L 0.875 -1.71875 C 1.394531 -1.425781 1.898438 -1.207031 2.390625 -1.0625 C 2.878906 -0.914062 3.363281 -0.84375 3.84375 -0.84375 C 4.5625 -0.84375 5.113281 -0.984375 5.5 -1.265625 C 5.894531 -1.546875 6.09375 -1.953125 6.09375 -2.484375 C 6.09375 -2.941406 5.953125 -3.296875 5.671875 -3.546875 C 5.390625 -3.804688 4.925781 -4.003906 4.28125 -4.140625 L 3.515625 -4.28125 C 2.578125 -4.46875 1.894531 -4.757812 1.46875 -5.15625 C 1.050781 -5.5625 0.84375 -6.117188 0.84375 -6.828125 C 0.84375 -7.660156 1.132812 -8.3125 1.71875 -8.78125 C 2.300781 -9.257812 3.101562 -9.5 4.125 -9.5 C 4.5625 -9.5 5.003906 -9.457031 5.453125 -9.375 C 5.910156 -9.300781 6.375 -9.179688 6.84375 -9.015625 Z M 6.84375 -9.015625 "/>
</symbol>
<symbol overflow="visible" id="glyph0-2">
<path style="stroke:none;" d="M -0.03125 -9.328125 L 1.328125 -9.328125 L 3.921875 -5.5 L 6.484375 -9.328125 L 7.84375 -9.328125 L 4.546875 -4.4375 L 4.546875 0 L 3.28125 0 L 3.28125 -4.4375 Z M -0.03125 -9.328125 "/>
</symbol>
<symbol overflow="visible" id="glyph0-3">
<path style="stroke:none;" d="M -0.03125 -9.328125 L 7.859375 -9.328125 L 7.859375 -8.265625 L 4.546875 -8.265625 L 4.546875 0 L 3.28125 0 L 3.28125 -8.265625 L -0.03125 -8.265625 Z M -0.03125 -9.328125 "/>
</symbol>
<symbol overflow="visible" id="glyph0-4">
<path style="stroke:none;" d="M 1.25 -9.328125 L 7.15625 -9.328125 L 7.15625 -8.265625 L 2.515625 -8.265625 L 2.515625 -5.5 L 6.953125 -5.5 L 6.953125 -4.4375 L 2.515625 -4.4375 L 2.515625 -1.0625 L 7.265625 -1.0625 L 7.265625 0 L 1.25 0 Z M 1.25 -9.328125 "/>
</symbol>
<symbol overflow="visible" id="glyph0-5">
<path style="stroke:none;" d="M 1.25 -9.328125 L 3.140625 -9.328125 L 5.515625 -2.984375 L 7.90625 -9.328125 L 9.796875 -9.328125 L 9.796875 0 L 8.5625 0 L 8.5625 -8.1875 L 6.15625 -1.796875 L 4.890625 -1.796875 L 2.484375 -8.1875 L 2.484375 0 L 1.25 0 Z M 1.25 -9.328125 "/>
</symbol>
<symbol overflow="visible" id="glyph0-6">
<path style="stroke:none;" d=""/>
</symbol>
<symbol overflow="visible" id="glyph0-7">
<path style="stroke:none;" d="M 5.046875 -8.46875 C 4.128906 -8.46875 3.398438 -8.125 2.859375 -7.4375 C 2.316406 -6.757812 2.046875 -5.832031 2.046875 -4.65625 C 2.046875 -3.476562 2.316406 -2.546875 2.859375 -1.859375 C 3.398438 -1.179688 4.128906 -0.84375 5.046875 -0.84375 C 5.960938 -0.84375 6.6875 -1.179688 7.21875 -1.859375 C 7.75 -2.546875 8.015625 -3.476562 8.015625 -4.65625 C 8.015625 -5.832031 7.75 -6.757812 7.21875 -7.4375 C 6.6875 -8.125 5.960938 -8.46875 5.046875 -8.46875 Z M 5.046875 -9.5 C 6.347656 -9.5 7.390625 -9.054688 8.171875 -8.171875 C 8.960938 -7.296875 9.359375 -6.125 9.359375 -4.65625 C 9.359375 -3.1875 8.960938 -2.007812 8.171875 -1.125 C 7.390625 -0.25 6.347656 0.1875 5.046875 0.1875 C 3.734375 0.1875 2.679688 -0.25 1.890625 -1.125 C 1.109375 -2 0.71875 -3.175781 0.71875 -4.65625 C 0.71875 -6.125 1.109375 -7.296875 1.890625 -8.171875 C 2.679688 -9.054688 3.734375 -9.5 5.046875 -9.5 Z M 5.046875 -9.5 "/>
</symbol>
<symbol overflow="visible" id="glyph0-8">
<path style="stroke:none;" d="M 1.25 -9.328125 L 2.515625 -9.328125 L 2.515625 0 L 1.25 0 Z M 1.25 -9.328125 "/>
</symbol>
<symbol overflow="visible" id="glyph0-9">
<path style="stroke:none;" d="M 5.6875 -4.375 C 5.957031 -4.28125 6.21875 -4.082031 6.46875 -3.78125 C 6.726562 -3.488281 6.984375 -3.078125 7.234375 -2.546875 L 8.515625 0 L 7.171875 0 L 5.96875 -2.390625 C 5.664062 -3.015625 5.367188 -3.425781 5.078125 -3.625 C 4.785156 -3.832031 4.390625 -3.9375 3.890625 -3.9375 L 2.515625 -3.9375 L 2.515625 0 L 1.25 0 L 1.25 -9.328125 L 4.109375 -9.328125 C 5.171875 -9.328125 5.960938 -9.101562 6.484375 -8.65625 C 7.015625 -8.207031 7.28125 -7.535156 7.28125 -6.640625 C 7.28125 -6.054688 7.140625 -5.566406 6.859375 -5.171875 C 6.585938 -4.785156 6.195312 -4.519531 5.6875 -4.375 Z M 2.515625 -8.296875 L 2.515625 -4.984375 L 4.109375 -4.984375 C 4.710938 -4.984375 5.171875 -5.125 5.484375 -5.40625 C 5.796875 -5.6875 5.953125 -6.097656 5.953125 -6.640625 C 5.953125 -7.179688 5.796875 -7.59375 5.484375 -7.875 C 5.171875 -8.15625 4.710938 -8.296875 4.109375 -8.296875 Z M 2.515625 -8.296875 "/>
</symbol>
<symbol overflow="visible" id="glyph0-10">
<path style="stroke:none;" d="M 4.375 -8.078125 L 2.65625 -3.4375 L 6.09375 -3.4375 Z M 3.65625 -9.328125 L 5.09375 -9.328125 L 8.640625 0 L 7.328125 0 L 6.484375 -2.390625 L 2.28125 -2.390625 L 1.4375 0 L 0.09375 0 Z M 3.65625 -9.328125 "/>
</symbol>
<symbol overflow="visible" id="glyph0-11">
<path style="stroke:none;" d="M 1.109375 -9.328125 L 2.375 -9.328125 L 2.375 -3.65625 C 2.375 -2.65625 2.554688 -1.9375 2.921875 -1.5 C 3.285156 -1.0625 3.875 -0.84375 4.6875 -0.84375 C 5.5 -0.84375 6.082031 -1.0625 6.4375 -1.5 C 6.800781 -1.9375 6.984375 -2.65625 6.984375 -3.65625 L 6.984375 -9.328125 L 8.25 -9.328125 L 8.25 -3.5 C 8.25 -2.289062 7.945312 -1.375 7.34375 -0.75 C 6.75 -0.125 5.863281 0.1875 4.6875 0.1875 C 3.507812 0.1875 2.617188 -0.125 2.015625 -0.75 C 1.410156 -1.375 1.109375 -2.289062 1.109375 -3.5 Z M 1.109375 -9.328125 "/>
</symbol>
<symbol overflow="visible" id="glyph0-12">
<path style="stroke:none;" d="M 1.25 -9.328125 L 2.953125 -9.328125 L 7.09375 -1.53125 L 7.09375 -9.328125 L 8.3125 -9.328125 L 8.3125 0 L 6.609375 0 L 2.484375 -7.796875 L 2.484375 0 L 1.25 0 Z M 1.25 -9.328125 "/>
</symbol>
<symbol overflow="visible" id="glyph0-13">
<path style="stroke:none;" d="M 2.515625 -8.296875 L 2.515625 -4.78125 L 4.109375 -4.78125 C 4.691406 -4.78125 5.144531 -4.929688 5.46875 -5.234375 C 5.789062 -5.546875 5.953125 -5.984375 5.953125 -6.546875 C 5.953125 -7.097656 5.789062 -7.523438 5.46875 -7.828125 C 5.144531 -8.140625 4.691406 -8.296875 4.109375 -8.296875 Z M 1.25 -9.328125 L 4.109375 -9.328125 C 5.148438 -9.328125 5.9375 -9.085938 6.46875 -8.609375 C 7.007812 -8.140625 7.28125 -7.453125 7.28125 -6.546875 C 7.28125 -5.617188 7.007812 -4.921875 6.46875 -4.453125 C 5.9375 -3.984375 5.148438 -3.75 4.109375 -3.75 L 2.515625 -3.75 L 2.515625 0 L 1.25 0 Z M 1.25 -9.328125 "/>
</symbol>
<symbol overflow="visible" id="glyph0-14">
<path style="stroke:none;" d="M 3.65625 0 L 0.09375 -9.328125 L 1.421875 -9.328125 L 4.375 -1.46875 L 7.328125 -9.328125 L 8.640625 -9.328125 L 5.09375 0 Z M 3.65625 0 "/>
</symbol>
<symbol overflow="visible" id="glyph0-15">
<path style="stroke:none;" d="M 1.25 -9.328125 L 2.515625 -9.328125 L 2.515625 -1.0625 L 7.0625 -1.0625 L 7.0625 0 L 1.25 0 Z M 1.25 -9.328125 "/>
</symbol>
<symbol overflow="visible" id="glyph0-16">
<path style="stroke:none;" d="M 2.515625 -8.296875 L 2.515625 -1.03125 L 4.046875 -1.03125 C 5.328125 -1.03125 6.265625 -1.320312 6.859375 -1.90625 C 7.460938 -2.488281 7.765625 -3.410156 7.765625 -4.671875 C 7.765625 -5.921875 7.460938 -6.835938 6.859375 -7.421875 C 6.265625 -8.003906 5.328125 -8.296875 4.046875 -8.296875 Z M 1.25 -9.328125 L 3.84375 -9.328125 C 5.65625 -9.328125 6.984375 -8.953125 7.828125 -8.203125 C 8.671875 -7.453125 9.09375 -6.273438 9.09375 -4.671875 C 9.09375 -3.066406 8.664062 -1.882812 7.8125 -1.125 C 6.96875 -0.375 5.644531 0 3.84375 0 L 1.25 0 Z M 1.25 -9.328125 "/>
</symbol>
<symbol overflow="visible" id="glyph0-17">
<path style="stroke:none;" d="M 7.609375 -1.328125 L 7.609375 -3.84375 L 5.5625 -3.84375 L 5.5625 -4.875 L 8.859375 -4.875 L 8.859375 -0.875 C 8.378906 -0.519531 7.84375 -0.253906 7.25 -0.078125 C 6.664062 0.0976562 6.039062 0.1875 5.375 0.1875 C 3.914062 0.1875 2.773438 -0.238281 1.953125 -1.09375 C 1.128906 -1.945312 0.71875 -3.132812 0.71875 -4.65625 C 0.71875 -6.175781 1.128906 -7.363281 1.953125 -8.21875 C 2.773438 -9.070312 3.914062 -9.5 5.375 -9.5 C 5.976562 -9.5 6.550781 -9.421875 7.09375 -9.265625 C 7.644531 -9.117188 8.15625 -8.898438 8.625 -8.609375 L 8.625 -7.265625 C 8.15625 -7.660156 7.65625 -7.957031 7.125 -8.15625 C 6.601562 -8.351562 6.054688 -8.453125 5.484375 -8.453125 C 4.335938 -8.453125 3.476562 -8.132812 2.90625 -7.5 C 2.332031 -6.863281 2.046875 -5.914062 2.046875 -4.65625 C 2.046875 -3.394531 2.332031 -2.445312 2.90625 -1.8125 C 3.476562 -1.175781 4.335938 -0.859375 5.484375 -0.859375 C 5.929688 -0.859375 6.328125 -0.894531 6.671875 -0.96875 C 7.023438 -1.050781 7.335938 -1.171875 7.609375 -1.328125 Z M 7.609375 -1.328125 "/>
</symbol>
<symbol overflow="visible" id="glyph0-18">
<path style="stroke:none;" d="M 1.25 -9.328125 L 6.609375 -9.328125 L 6.609375 -8.265625 L 2.515625 -8.265625 L 2.515625 -5.515625 L 6.21875 -5.515625 L 6.21875 -4.453125 L 2.515625 -4.453125 L 2.515625 0 L 1.25 0 Z M 1.25 -9.328125 "/>
</symbol>
<symbol overflow="visible" id="glyph0-19">
<path style="stroke:none;" d="M 1.25 -9.328125 L 2.515625 -9.328125 L 2.515625 -5.5 L 7.109375 -5.5 L 7.109375 -9.328125 L 8.359375 -9.328125 L 8.359375 0 L 7.109375 0 L 7.109375 -4.4375 L 2.515625 -4.4375 L 2.515625 0 L 1.25 0 Z M 1.25 -9.328125 "/>
</symbol>
<symbol overflow="visible" id="glyph0-20">
<path style="stroke:none;" d="M 4.0625 -8.5 C 3.414062 -8.5 2.925781 -8.175781 2.59375 -7.53125 C 2.269531 -6.894531 2.109375 -5.9375 2.109375 -4.65625 C 2.109375 -3.375 2.269531 -2.410156 2.59375 -1.765625 C 2.925781 -1.128906 3.414062 -0.8125 4.0625 -0.8125 C 4.71875 -0.8125 5.207031 -1.128906 5.53125 -1.765625 C 5.863281 -2.410156 6.03125 -3.375 6.03125 -4.65625 C 6.03125 -5.9375 5.863281 -6.894531 5.53125 -7.53125 C 5.207031 -8.175781 4.71875 -8.5 4.0625 -8.5 Z M 4.0625 -9.5 C 5.113281 -9.5 5.914062 -9.082031 6.46875 -8.25 C 7.019531 -7.425781 7.296875 -6.226562 7.296875 -4.65625 C 7.296875 -3.082031 7.019531 -1.878906 6.46875 -1.046875 C 5.914062 -0.222656 5.113281 0.1875 4.0625 0.1875 C 3.019531 0.1875 2.222656 -0.222656 1.671875 -1.046875 C 1.117188 -1.878906 0.84375 -3.082031 0.84375 -4.65625 C 0.84375 -6.226562 1.117188 -7.425781 1.671875 -8.25 C 2.222656 -9.082031 3.019531 -9.5 4.0625 -9.5 Z M 4.0625 -9.5 "/>
</symbol>
<symbol overflow="visible" id="glyph0-21">
<path style="stroke:none;" d="M 3.96875 -9.703125 C 3.40625 -8.742188 2.988281 -7.796875 2.71875 -6.859375 C 2.445312 -5.929688 2.3125 -4.984375 2.3125 -4.015625 C 2.3125 -3.054688 2.445312 -2.101562 2.71875 -1.15625 C 3 -0.21875 3.414062 0.726562 3.96875 1.6875 L 2.96875 1.6875 C 2.34375 0.707031 1.875 -0.253906 1.5625 -1.203125 C 1.25 -2.148438 1.09375 -3.085938 1.09375 -4.015625 C 1.09375 -4.941406 1.25 -5.875 1.5625 -6.8125 C 1.875 -7.757812 2.34375 -8.722656 2.96875 -9.703125 Z M 3.96875 -9.703125 "/>
</symbol>
<symbol overflow="visible" id="glyph0-22">
<path style="stroke:none;" d="M 1.09375 -2.765625 L 1.09375 -7 L 2.234375 -7 L 2.234375 -2.8125 C 2.234375 -2.144531 2.363281 -1.644531 2.625 -1.3125 C 2.882812 -0.976562 3.269531 -0.8125 3.78125 -0.8125 C 4.40625 -0.8125 4.894531 -1.007812 5.25 -1.40625 C 5.613281 -1.800781 5.796875 -2.34375 5.796875 -3.03125 L 5.796875 -7 L 6.953125 -7 L 6.953125 0 L 5.796875 0 L 5.796875 -1.078125 C 5.515625 -0.648438 5.191406 -0.332031 4.828125 -0.125 C 4.460938 0.0820312 4.035156 0.1875 3.546875 0.1875 C 2.742188 0.1875 2.132812 -0.0625 1.71875 -0.5625 C 1.300781 -1.0625 1.09375 -1.796875 1.09375 -2.765625 Z M 3.984375 -7.171875 Z M 3.984375 -7.171875 "/>
</symbol>
<symbol overflow="visible" id="glyph0-23">
<path style="stroke:none;" d="M 7.015625 -4.21875 L 7.015625 0 L 5.875 0 L 5.875 -4.1875 C 5.875 -4.851562 5.742188 -5.347656 5.484375 -5.671875 C 5.222656 -6.003906 4.835938 -6.171875 4.328125 -6.171875 C 3.703125 -6.171875 3.207031 -5.972656 2.84375 -5.578125 C 2.488281 -5.179688 2.3125 -4.640625 2.3125 -3.953125 L 2.3125 0 L 1.15625 0 L 1.15625 -7 L 2.3125 -7 L 2.3125 -5.90625 C 2.59375 -6.332031 2.914062 -6.648438 3.28125 -6.859375 C 3.65625 -7.066406 4.085938 -7.171875 4.578125 -7.171875 C 5.378906 -7.171875 5.984375 -6.921875 6.390625 -6.421875 C 6.804688 -5.921875 7.015625 -5.1875 7.015625 -4.21875 Z M 7.015625 -4.21875 "/>
</symbol>
<symbol overflow="visible" id="glyph0-24">
<path style="stroke:none;" d="M 5.671875 -6.796875 L 5.671875 -5.703125 C 5.347656 -5.867188 5.007812 -5.992188 4.65625 -6.078125 C 4.300781 -6.160156 3.9375 -6.203125 3.5625 -6.203125 C 3 -6.203125 2.570312 -6.113281 2.28125 -5.9375 C 2 -5.769531 1.859375 -5.507812 1.859375 -5.15625 C 1.859375 -4.882812 1.957031 -4.671875 2.15625 -4.515625 C 2.363281 -4.367188 2.773438 -4.226562 3.390625 -4.09375 L 3.78125 -4 C 4.601562 -3.832031 5.1875 -3.585938 5.53125 -3.265625 C 5.875 -2.941406 6.046875 -2.5 6.046875 -1.9375 C 6.046875 -1.28125 5.785156 -0.757812 5.265625 -0.375 C 4.753906 0 4.050781 0.1875 3.15625 0.1875 C 2.78125 0.1875 2.390625 0.148438 1.984375 0.078125 C 1.578125 0.00390625 1.144531 -0.101562 0.6875 -0.25 L 0.6875 -1.4375 C 1.113281 -1.21875 1.53125 -1.050781 1.9375 -0.9375 C 2.351562 -0.832031 2.765625 -0.78125 3.171875 -0.78125 C 3.710938 -0.78125 4.128906 -0.875 4.421875 -1.0625 C 4.710938 -1.25 4.859375 -1.507812 4.859375 -1.84375 C 4.859375 -2.15625 4.753906 -2.394531 4.546875 -2.5625 C 4.335938 -2.726562 3.875 -2.890625 3.15625 -3.046875 L 2.765625 -3.140625 C 2.046875 -3.285156 1.53125 -3.515625 1.21875 -3.828125 C 0.90625 -4.140625 0.75 -4.566406 0.75 -5.109375 C 0.75 -5.765625 0.976562 -6.269531 1.4375 -6.625 C 1.90625 -6.988281 2.570312 -7.171875 3.4375 -7.171875 C 3.851562 -7.171875 4.25 -7.140625 4.625 -7.078125 C 5 -7.015625 5.347656 -6.921875 5.671875 -6.796875 Z M 5.671875 -6.796875 "/>
</symbol>
<symbol overflow="visible" id="glyph0-25">
<path style="stroke:none;" d="M 2.34375 -8.984375 L 2.34375 -7 L 4.71875 -7 L 4.71875 -6.109375 L 2.34375 -6.109375 L 2.34375 -2.3125 C 2.34375 -1.738281 2.421875 -1.367188 2.578125 -1.203125 C 2.734375 -1.046875 3.050781 -0.96875 3.53125 -0.96875 L 4.71875 -0.96875 L 4.71875 0 L 3.53125 0 C 2.644531 0 2.03125 -0.164062 1.6875 -0.5 C 1.351562 -0.832031 1.1875 -1.4375 1.1875 -2.3125 L 1.1875 -6.109375 L 0.34375 -6.109375 L 0.34375 -7 L 1.1875 -7 L 1.1875 -8.984375 Z M 2.34375 -8.984375 "/>
</symbol>
<symbol overflow="visible" id="glyph0-26">
<path style="stroke:none;" d="M 5.265625 -5.921875 C 5.128906 -5.992188 4.984375 -6.046875 4.828125 -6.078125 C 4.679688 -6.117188 4.519531 -6.140625 4.34375 -6.140625 C 3.6875 -6.140625 3.179688 -5.925781 2.828125 -5.5 C 2.484375 -5.082031 2.3125 -4.476562 2.3125 -3.6875 L 2.3125 0 L 1.15625 0 L 1.15625 -7 L 2.3125 -7 L 2.3125 -5.90625 C 2.5625 -6.332031 2.878906 -6.648438 3.265625 -6.859375 C 3.648438 -7.066406 4.117188 -7.171875 4.671875 -7.171875 C 4.753906 -7.171875 4.84375 -7.164062 4.9375 -7.15625 C 5.03125 -7.144531 5.132812 -7.128906 5.25 -7.109375 Z M 5.265625 -5.921875 "/>
</symbol>
<symbol overflow="visible" id="glyph0-27">
<path style="stroke:none;" d="M 5.8125 -3.578125 C 5.8125 -4.410156 5.640625 -5.054688 5.296875 -5.515625 C 4.953125 -5.972656 4.46875 -6.203125 3.84375 -6.203125 C 3.226562 -6.203125 2.75 -5.972656 2.40625 -5.515625 C 2.0625 -5.054688 1.890625 -4.410156 1.890625 -3.578125 C 1.890625 -2.753906 2.0625 -2.113281 2.40625 -1.65625 C 2.75 -1.195312 3.226562 -0.96875 3.84375 -0.96875 C 4.46875 -0.96875 4.953125 -1.195312 5.296875 -1.65625 C 5.640625 -2.113281 5.8125 -2.753906 5.8125 -3.578125 Z M 6.953125 -0.875 C 6.953125 0.320312 6.6875 1.207031 6.15625 1.78125 C 5.632812 2.363281 4.828125 2.65625 3.734375 2.65625 C 3.328125 2.65625 2.945312 2.625 2.59375 2.5625 C 2.238281 2.507812 1.890625 2.421875 1.546875 2.296875 L 1.546875 1.171875 C 1.890625 1.359375 2.222656 1.492188 2.546875 1.578125 C 2.878906 1.671875 3.21875 1.71875 3.5625 1.71875 C 4.3125 1.71875 4.875 1.519531 5.25 1.125 C 5.625 0.726562 5.8125 0.132812 5.8125 -0.65625 L 5.8125 -1.234375 C 5.570312 -0.816406 5.265625 -0.503906 4.890625 -0.296875 C 4.523438 -0.0976562 4.082031 0 3.5625 0 C 2.707031 0 2.015625 -0.328125 1.484375 -0.984375 C 0.960938 -1.640625 0.703125 -2.503906 0.703125 -3.578125 C 0.703125 -4.660156 0.960938 -5.53125 1.484375 -6.1875 C 2.015625 -6.84375 2.707031 -7.171875 3.5625 -7.171875 C 4.082031 -7.171875 4.523438 -7.066406 4.890625 -6.859375 C 5.265625 -6.648438 5.570312 -6.34375 5.8125 -5.9375 L 5.8125 -7 L 6.953125 -7 Z M 6.953125 -0.875 "/>
</symbol>
<symbol overflow="visible" id="glyph0-28">
<path style="stroke:none;" d="M 1.03125 -9.703125 L 2.03125 -9.703125 C 2.65625 -8.722656 3.117188 -7.757812 3.421875 -6.8125 C 3.734375 -5.875 3.890625 -4.941406 3.890625 -4.015625 C 3.890625 -3.085938 3.734375 -2.148438 3.421875 -1.203125 C 3.117188 -0.253906 2.65625 0.707031 2.03125 1.6875 L 1.03125 1.6875 C 1.582031 0.726562 1.992188 -0.21875 2.265625 -1.15625 C 2.535156 -2.101562 2.671875 -3.054688 2.671875 -4.015625 C 2.671875 -4.984375 2.535156 -5.929688 2.265625 -6.859375 C 1.992188 -7.796875 1.582031 -8.742188 1.03125 -9.703125 Z M 1.03125 -9.703125 "/>
</symbol>
<symbol overflow="visible" id="glyph0-29">
<path style="stroke:none;" d="M 7.1875 -3.78125 L 7.1875 -3.21875 L 1.90625 -3.21875 C 1.957031 -2.425781 2.195312 -1.820312 2.625 -1.40625 C 3.050781 -1 3.644531 -0.796875 4.40625 -0.796875 C 4.84375 -0.796875 5.269531 -0.847656 5.6875 -0.953125 C 6.101562 -1.066406 6.515625 -1.226562 6.921875 -1.4375 L 6.921875 -0.359375 C 6.515625 -0.179688 6.09375 -0.046875 5.65625 0.046875 C 5.21875 0.140625 4.78125 0.1875 4.34375 0.1875 C 3.21875 0.1875 2.328125 -0.132812 1.671875 -0.78125 C 1.023438 -1.4375 0.703125 -2.320312 0.703125 -3.4375 C 0.703125 -4.582031 1.007812 -5.488281 1.625 -6.15625 C 2.25 -6.832031 3.085938 -7.171875 4.140625 -7.171875 C 5.078125 -7.171875 5.816406 -6.863281 6.359375 -6.25 C 6.910156 -5.644531 7.1875 -4.820312 7.1875 -3.78125 Z M 6.046875 -4.125 C 6.035156 -4.75 5.859375 -5.25 5.515625 -5.625 C 5.171875 -6 4.71875 -6.1875 4.15625 -6.1875 C 3.507812 -6.1875 2.992188 -6.003906 2.609375 -5.640625 C 2.222656 -5.285156 2 -4.78125 1.9375 -4.125 Z M 6.046875 -4.125 "/>
</symbol>
<symbol overflow="visible" id="glyph0-30">
<path style="stroke:none;" d="M 6.25 -6.734375 L 6.25 -5.65625 C 5.914062 -5.832031 5.585938 -5.960938 5.265625 -6.046875 C 4.941406 -6.140625 4.613281 -6.1875 4.28125 -6.1875 C 3.53125 -6.1875 2.945312 -5.953125 2.53125 -5.484375 C 2.125 -5.015625 1.921875 -4.351562 1.921875 -3.5 C 1.921875 -2.644531 2.125 -1.976562 2.53125 -1.5 C 2.945312 -1.03125 3.53125 -0.796875 4.28125 -0.796875 C 4.613281 -0.796875 4.941406 -0.835938 5.265625 -0.921875 C 5.585938 -1.015625 5.914062 -1.148438 6.25 -1.328125 L 6.25 -0.265625 C 5.925781 -0.117188 5.59375 -0.0078125 5.25 0.0625 C 4.90625 0.144531 4.539062 0.1875 4.15625 0.1875 C 3.09375 0.1875 2.25 -0.144531 1.625 -0.8125 C 1.007812 -1.476562 0.703125 -2.375 0.703125 -3.5 C 0.703125 -4.632812 1.015625 -5.53125 1.640625 -6.1875 C 2.273438 -6.84375 3.132812 -7.171875 4.21875 -7.171875 C 4.570312 -7.171875 4.914062 -7.132812 5.25 -7.0625 C 5.59375 -6.988281 5.925781 -6.878906 6.25 -6.734375 Z M 6.25 -6.734375 "/>
</symbol>
<symbol overflow="visible" id="glyph0-31">
<path style="stroke:none;" d="M 1.25 -9.328125 L 2.515625 -9.328125 L 2.515625 -5.390625 L 6.703125 -9.328125 L 8.328125 -9.328125 L 3.703125 -4.984375 L 8.65625 0 L 7 0 L 2.515625 -4.5 L 2.515625 0 L 1.25 0 Z M 1.25 -9.328125 "/>
</symbol>
<symbol overflow="visible" id="glyph0-32">
<path style="stroke:none;" d="M 8.234375 -8.609375 L 8.234375 -7.28125 C 7.816406 -7.675781 7.363281 -7.96875 6.875 -8.15625 C 6.394531 -8.351562 5.882812 -8.453125 5.34375 -8.453125 C 4.28125 -8.453125 3.460938 -8.125 2.890625 -7.46875 C 2.328125 -6.820312 2.046875 -5.882812 2.046875 -4.65625 C 2.046875 -3.425781 2.328125 -2.484375 2.890625 -1.828125 C 3.460938 -1.179688 4.28125 -0.859375 5.34375 -0.859375 C 5.882812 -0.859375 6.394531 -0.953125 6.875 -1.140625 C 7.363281 -1.335938 7.816406 -1.632812 8.234375 -2.03125 L 8.234375 -0.71875 C 7.796875 -0.414062 7.328125 -0.1875 6.828125 -0.03125 C 6.335938 0.113281 5.820312 0.1875 5.28125 0.1875 C 3.863281 0.1875 2.75 -0.242188 1.9375 -1.109375 C 1.125 -1.972656 0.71875 -3.15625 0.71875 -4.65625 C 0.71875 -6.15625 1.125 -7.335938 1.9375 -8.203125 C 2.75 -9.066406 3.863281 -9.5 5.28125 -9.5 C 5.832031 -9.5 6.351562 -9.421875 6.84375 -9.265625 C 7.34375 -9.117188 7.804688 -8.898438 8.234375 -8.609375 Z M 8.234375 -8.609375 "/>
</symbol>
<symbol overflow="visible" id="glyph0-33">
<path style="stroke:none;" d="M 5.8125 -5.9375 L 5.8125 -9.71875 L 6.953125 -9.71875 L 6.953125 0 L 5.8125 0 L 5.8125 -1.046875 C 5.570312 -0.628906 5.265625 -0.316406 4.890625 -0.109375 C 4.523438 0.0859375 4.082031 0.1875 3.5625 0.1875 C 2.71875 0.1875 2.03125 -0.148438 1.5 -0.828125 C 0.96875 -1.503906 0.703125 -2.394531 0.703125 -3.5 C 0.703125 -4.59375 0.96875 -5.476562 1.5 -6.15625 C 2.03125 -6.832031 2.71875 -7.171875 3.5625 -7.171875 C 4.082031 -7.171875 4.523438 -7.066406 4.890625 -6.859375 C 5.265625 -6.660156 5.570312 -6.351562 5.8125 -5.9375 Z M 1.890625 -3.5 C 1.890625 -2.644531 2.0625 -1.976562 2.40625 -1.5 C 2.757812 -1.019531 3.238281 -0.78125 3.84375 -0.78125 C 4.457031 -0.78125 4.9375 -1.019531 5.28125 -1.5 C 5.632812 -1.976562 5.8125 -2.644531 5.8125 -3.5 C 5.8125 -4.34375 5.632812 -5.003906 5.28125 -5.484375 C 4.9375 -5.960938 4.457031 -6.203125 3.84375 -6.203125 C 3.238281 -6.203125 2.757812 -5.960938 2.40625 -5.484375 C 2.0625 -5.003906 1.890625 -4.34375 1.890625 -3.5 Z M 1.890625 -3.5 "/>
</symbol>
<symbol overflow="visible" id="glyph0-34">
<path style="stroke:none;" d="M 4.390625 -3.515625 C 3.460938 -3.515625 2.816406 -3.40625 2.453125 -3.1875 C 2.097656 -2.976562 1.921875 -2.617188 1.921875 -2.109375 C 1.921875 -1.703125 2.050781 -1.378906 2.3125 -1.140625 C 2.582031 -0.898438 2.953125 -0.78125 3.421875 -0.78125 C 4.054688 -0.78125 4.566406 -1.003906 4.953125 -1.453125 C 5.335938 -1.910156 5.53125 -2.515625 5.53125 -3.265625 L 5.53125 -3.515625 Z M 6.671875 -4 L 6.671875 0 L 5.53125 0 L 5.53125 -1.0625 C 5.269531 -0.632812 4.941406 -0.316406 4.546875 -0.109375 C 4.160156 0.0859375 3.679688 0.1875 3.109375 0.1875 C 2.390625 0.1875 1.816406 -0.015625 1.390625 -0.421875 C 0.972656 -0.828125 0.765625 -1.363281 0.765625 -2.03125 C 0.765625 -2.820312 1.023438 -3.414062 1.546875 -3.8125 C 2.078125 -4.21875 2.867188 -4.421875 3.921875 -4.421875 L 5.53125 -4.421875 L 5.53125 -4.53125 C 5.53125 -5.0625 5.351562 -5.46875 5 -5.75 C 4.65625 -6.039062 4.171875 -6.1875 3.546875 -6.1875 C 3.140625 -6.1875 2.75 -6.140625 2.375 -6.046875 C 2 -5.953125 1.632812 -5.8125 1.28125 -5.625 L 1.28125 -6.671875 C 1.695312 -6.835938 2.101562 -6.960938 2.5 -7.046875 C 2.894531 -7.128906 3.28125 -7.171875 3.65625 -7.171875 C 4.675781 -7.171875 5.429688 -6.90625 5.921875 -6.375 C 6.421875 -5.851562 6.671875 -5.0625 6.671875 -4 Z M 6.671875 -4 "/>
</symbol>
<symbol overflow="visible" id="glyph0-35">
<path style="stroke:none;" d="M 6.65625 -5.65625 C 6.9375 -6.164062 7.273438 -6.546875 7.671875 -6.796875 C 8.078125 -7.046875 8.550781 -7.171875 9.09375 -7.171875 C 9.820312 -7.171875 10.382812 -6.914062 10.78125 -6.40625 C 11.175781 -5.894531 11.375 -5.164062 11.375 -4.21875 L 11.375 0 L 10.21875 0 L 10.21875 -4.1875 C 10.21875 -4.851562 10.097656 -5.347656 9.859375 -5.671875 C 9.628906 -6.003906 9.269531 -6.171875 8.78125 -6.171875 C 8.1875 -6.171875 7.710938 -5.972656 7.359375 -5.578125 C 7.015625 -5.179688 6.84375 -4.640625 6.84375 -3.953125 L 6.84375 0 L 5.6875 0 L 5.6875 -4.1875 C 5.6875 -4.863281 5.566406 -5.363281 5.328125 -5.6875 C 5.097656 -6.007812 4.734375 -6.171875 4.234375 -6.171875 C 3.648438 -6.171875 3.179688 -5.96875 2.828125 -5.5625 C 2.484375 -5.164062 2.3125 -4.628906 2.3125 -3.953125 L 2.3125 0 L 1.15625 0 L 1.15625 -7 L 2.3125 -7 L 2.3125 -5.90625 C 2.582031 -6.332031 2.898438 -6.648438 3.265625 -6.859375 C 3.628906 -7.066406 4.0625 -7.171875 4.5625 -7.171875 C 5.070312 -7.171875 5.503906 -7.039062 5.859375 -6.78125 C 6.222656 -6.519531 6.488281 -6.144531 6.65625 -5.65625 Z M 6.65625 -5.65625 "/>
</symbol>
<symbol overflow="visible" id="glyph0-36">
<path style="stroke:none;" d="M 3.921875 -6.1875 C 3.304688 -6.1875 2.816406 -5.945312 2.453125 -5.46875 C 2.097656 -4.988281 1.921875 -4.332031 1.921875 -3.5 C 1.921875 -2.65625 2.097656 -1.992188 2.453125 -1.515625 C 2.804688 -1.035156 3.296875 -0.796875 3.921875 -0.796875 C 4.535156 -0.796875 5.019531 -1.035156 5.375 -1.515625 C 5.726562 -2.003906 5.90625 -2.664062 5.90625 -3.5 C 5.90625 -4.320312 5.726562 -4.972656 5.375 -5.453125 C 5.019531 -5.941406 4.535156 -6.1875 3.921875 -6.1875 Z M 3.921875 -7.171875 C 4.921875 -7.171875 5.703125 -6.84375 6.265625 -6.1875 C 6.835938 -5.539062 7.125 -4.644531 7.125 -3.5 C 7.125 -2.351562 6.835938 -1.453125 6.265625 -0.796875 C 5.703125 -0.140625 4.921875 0.1875 3.921875 0.1875 C 2.910156 0.1875 2.117188 -0.140625 1.546875 -0.796875 C 0.984375 -1.453125 0.703125 -2.351562 0.703125 -3.5 C 0.703125 -4.644531 0.984375 -5.539062 1.546875 -6.1875 C 2.117188 -6.84375 2.910156 -7.171875 3.921875 -7.171875 Z M 3.921875 -7.171875 "/>
</symbol>
<symbol overflow="visible" id="glyph0-37">
<path style="stroke:none;" d="M 1.203125 -9.71875 L 2.359375 -9.71875 L 2.359375 0 L 1.203125 0 Z M 1.203125 -9.71875 "/>
</symbol>
<symbol overflow="visible" id="glyph0-38">
<path style="stroke:none;" d="M 1.203125 -7 L 2.359375 -7 L 2.359375 0 L 1.203125 0 Z M 1.203125 -9.71875 L 2.359375 -9.71875 L 2.359375 -8.265625 L 1.203125 -8.265625 Z M 1.203125 -9.71875 "/>
</symbol>
<symbol overflow="visible" id="glyph1-0">
<path style="stroke:none;" d="M 1.203125 0 L 1.203125 -9.140625 L 6.46875 -9.140625 L 6.46875 0 Z M 1.859375 -0.65625 L 5.8125 -0.65625 L 5.8125 -8.484375 L 1.859375 -8.484375 Z M 1.859375 -0.65625 "/>
</symbol>
<symbol overflow="visible" id="glyph1-1">
<path style="stroke:none;" d="M 1.40625 0 L 1.40625 -0.796875 L 3.25 -0.953125 L 3.25 -8.171875 L 1.40625 -8.34375 L 1.40625 -9.140625 L 6.265625 -9.140625 L 6.265625 -8.34375 L 4.40625 -8.171875 L 4.40625 -0.953125 L 6.265625 -0.796875 L 6.265625 0 Z M 1.40625 0 "/>
</symbol>
<symbol overflow="visible" id="glyph1-2">
<path style="stroke:none;" d="M 1.21875 0 L 1.21875 -9.140625 L 6.59375 -9.140625 L 6.59375 -8.109375 L 2.375 -8.109375 L 2.375 -4.890625 L 6.34375 -4.890625 L 6.34375 -3.859375 L 2.375 -3.859375 L 2.375 0 Z M 1.21875 0 "/>
</symbol>
<symbol overflow="visible" id="glyph1-3">
<path style="stroke:none;" d="M 1.03125 0 L 1.03125 -6.859375 L 1.9375 -6.859375 L 2.109375 -5.84375 L 2.171875 -5.84375 C 2.367188 -6.238281 2.660156 -6.523438 3.046875 -6.703125 C 3.441406 -6.890625 3.898438 -6.984375 4.421875 -6.984375 C 5.109375 -6.984375 5.660156 -6.789062 6.078125 -6.40625 C 6.503906 -6.019531 6.71875 -5.410156 6.71875 -4.578125 L 6.71875 0 L 5.5625 0 L 5.5625 -4.375 C 5.5625 -4.957031 5.441406 -5.378906 5.203125 -5.640625 C 4.972656 -5.910156 4.597656 -6.046875 4.078125 -6.046875 C 3.378906 -6.046875 2.882812 -5.820312 2.59375 -5.375 C 2.3125 -4.9375 2.171875 -4.316406 2.171875 -3.515625 L 2.171875 0 Z M 1.03125 0 "/>
</symbol>
<symbol overflow="visible" id="glyph1-4">
<path style="stroke:none;" d="M 0.578125 0 L 3.171875 -3.5 L 0.703125 -6.859375 L 2 -6.859375 L 3.84375 -4.28125 L 5.6875 -6.859375 L 6.96875 -6.859375 L 4.484375 -3.5 L 7.09375 0 L 5.796875 0 L 3.84375 -2.71875 L 1.875 0 Z M 0.578125 0 "/>
</symbol>
<symbol overflow="visible" id="glyph1-5">
<path style="stroke:none;" d="M 0.25 0 L 3.21875 -9.171875 L 4.4375 -9.171875 L 7.421875 0 L 6.25 0 L 5.375 -2.796875 L 2.296875 -2.796875 L 1.421875 0 Z M 3.453125 -6.546875 L 2.609375 -3.828125 L 5.0625 -3.828125 L 4.203125 -6.546875 C 4.160156 -6.691406 4.101562 -6.894531 4.03125 -7.15625 C 3.957031 -7.425781 3.890625 -7.691406 3.828125 -7.953125 C 3.773438 -7.691406 3.707031 -7.425781 3.625 -7.15625 C 3.550781 -6.894531 3.492188 -6.691406 3.453125 -6.546875 Z M 3.453125 -6.546875 "/>
</symbol>
<symbol overflow="visible" id="glyph1-6">
<path style="stroke:none;" d="M 4.671875 0.125 C 3.773438 0.125 3.046875 -0.0703125 2.484375 -0.46875 C 1.921875 -0.875 1.503906 -1.425781 1.234375 -2.125 C 0.972656 -2.832031 0.84375 -3.644531 0.84375 -4.5625 C 0.84375 -5.53125 0.992188 -6.363281 1.296875 -7.0625 C 1.597656 -7.769531 2.035156 -8.3125 2.609375 -8.6875 C 3.191406 -9.070312 3.894531 -9.265625 4.71875 -9.265625 C 5.164062 -9.265625 5.582031 -9.21875 5.96875 -9.125 C 6.351562 -9.03125 6.707031 -8.898438 7.03125 -8.734375 L 6.609375 -7.796875 C 6.335938 -7.941406 6.035156 -8.050781 5.703125 -8.125 C 5.367188 -8.195312 5.039062 -8.234375 4.71875 -8.234375 C 3.851562 -8.234375 3.1875 -7.914062 2.71875 -7.28125 C 2.25 -6.65625 2.015625 -5.75 2.015625 -4.5625 C 2.015625 -3.425781 2.222656 -2.535156 2.640625 -1.890625 C 3.066406 -1.253906 3.753906 -0.9375 4.703125 -0.9375 C 4.984375 -0.9375 5.289062 -0.96875 5.625 -1.03125 C 5.96875 -1.09375 6.304688 -1.191406 6.640625 -1.328125 L 6.640625 -0.25 C 6.296875 -0.113281 5.96875 -0.0195312 5.65625 0.03125 C 5.351562 0.09375 5.023438 0.125 4.671875 0.125 Z M 4.671875 0.125 "/>
</symbol>
<symbol overflow="visible" id="glyph1-7">
<path style="stroke:none;" d="M 1.21875 0 L 1.21875 -9.140625 L 3.828125 -9.140625 C 4.921875 -9.140625 5.71875 -8.90625 6.21875 -8.4375 C 6.71875 -7.96875 6.96875 -7.3125 6.96875 -6.46875 C 6.96875 -5.957031 6.863281 -5.472656 6.65625 -5.015625 C 6.445312 -4.566406 6.101562 -4.203125 5.625 -3.921875 C 5.144531 -3.648438 4.488281 -3.515625 3.65625 -3.515625 L 2.375 -3.515625 L 2.375 0 Z M 3.53125 -4.515625 C 4.289062 -4.515625 4.859375 -4.660156 5.234375 -4.953125 C 5.609375 -5.242188 5.796875 -5.726562 5.796875 -6.40625 C 5.796875 -7.03125 5.625 -7.472656 5.28125 -7.734375 C 4.945312 -8.003906 4.425781 -8.140625 3.71875 -8.140625 L 2.375 -8.140625 L 2.375 -4.515625 Z M 3.53125 -4.515625 "/>
</symbol>
<symbol overflow="visible" id="glyph1-8">
<path style="stroke:none;" d="M 3.828125 0.125 C 2.765625 0.125 1.988281 -0.289062 1.5 -1.125 C 1.007812 -1.957031 0.765625 -3.109375 0.765625 -4.578125 C 0.765625 -5.566406 0.863281 -6.410156 1.0625 -7.109375 C 1.269531 -7.804688 1.597656 -8.335938 2.046875 -8.703125 C 2.492188 -9.078125 3.085938 -9.265625 3.828125 -9.265625 C 4.898438 -9.265625 5.679688 -8.851562 6.171875 -8.03125 C 6.660156 -7.21875 6.90625 -6.066406 6.90625 -4.578125 C 6.90625 -3.597656 6.800781 -2.753906 6.59375 -2.046875 C 6.394531 -1.347656 6.066406 -0.8125 5.609375 -0.4375 C 5.160156 -0.0625 4.566406 0.125 3.828125 0.125 Z M 1.84375 -4.578125 C 1.84375 -4.203125 1.859375 -3.847656 1.890625 -3.515625 C 1.921875 -3.191406 1.960938 -2.898438 2.015625 -2.640625 L 5.0625 -7.765625 C 4.738281 -8.085938 4.328125 -8.25 3.828125 -8.25 C 3.140625 -8.25 2.632812 -7.945312 2.3125 -7.34375 C 2 -6.75 1.84375 -5.828125 1.84375 -4.578125 Z M 3.828125 -0.890625 C 4.523438 -0.890625 5.039062 -1.1875 5.375 -1.78125 C 5.707031 -2.382812 5.875 -3.316406 5.875 -4.578125 C 5.875 -5.460938 5.789062 -6.1875 5.625 -6.75 L 2.515625 -1.515625 C 2.828125 -1.097656 3.265625 -0.890625 3.828125 -0.890625 Z M 3.828125 -0.890625 "/>
</symbol>
</g>
</defs>
<g id="surface37892">
<rect x="0" y="0" width="1313" height="611" style="fill:rgb(100%,100%,100%);fill-opacity:1;stroke:none;"/>
<path style="fill-rule:evenodd;fill:rgb(100%,100%,100%);fill-opacity:1;stroke-width:0.1;stroke-linecap:butt;stroke-linejoin:miter;stroke:rgb(0%,0%,0%);stroke-opacity:1;stroke-miterlimit:10;" d="M 28.299961 9.1 L 60.049961 9.1 L 60.049961 35.85 L 28.299961 35.85 Z M 28.299961 9.1 " transform="matrix(20,0,0,20,110.7,-107)"/>
<g style="fill:rgb(0%,0%,0%);fill-opacity:1;">
  <use xlink:href="#glyph0-1" x="1096.199219" y="95.005968"/>
  <use xlink:href="#glyph0-2" x="1104.254774" y="95.005968"/>
  <use xlink:href="#glyph0-1" x="1112.032552" y="95.005968"/>
  <use xlink:href="#glyph0-3" x="1120.088108" y="95.005968"/>
  <use xlink:href="#glyph0-4" x="1127.865885" y="95.005968"/>
  <use xlink:href="#glyph0-5" x="1135.921441" y="95.005968"/>
  <use xlink:href="#glyph0-6" x="1147.032552" y="95.005968"/>
  <use xlink:href="#glyph0-5" x="1151.199219" y="95.005968"/>
  <use xlink:href="#glyph0-7" x="1162.31033" y="95.005968"/>
  <use xlink:href="#glyph0-8" x="1172.31033" y="95.005968"/>
  <use xlink:href="#glyph0-9" x="1176.199219" y="95.005968"/>
  <use xlink:href="#glyph0-10" x="1184.532552" y="95.005968"/>
</g>
<path style="fill-rule:evenodd;fill:rgb(100%,100%,100%);fill-opacity:1;stroke-width:0.1;stroke-linecap:butt;stroke-linejoin:miter;stroke:rgb(0%,0%,0%);stroke-opacity:1;stroke-miterlimit:10;" d="M 28.299961 9.1 L 41.399961 9.1 L 28.299961 20.35 Z M 28.299961 9.1 " transform="matrix(20,0,0,20,110.7,-107)"/>
<g style="fill:rgb(0%,0%,0%);fill-opacity:1;">
  <use xlink:href="#glyph0-11" x="700.035156" y="91.005968"/>
  <use xlink:href="#glyph0-12" x="709.479601" y="91.005968"/>
  <use xlink:href="#glyph0-13" x="718.924045" y="91.005968"/>
  <use xlink:href="#glyph0-9" x="726.701823" y="91.005968"/>
  <use xlink:href="#glyph0-8" x="735.590712" y="91.005968"/>
  <use xlink:href="#glyph0-14" x="739.479601" y="91.005968"/>
  <use xlink:href="#glyph0-8" x="748.36849" y="91.005968"/>
  <use xlink:href="#glyph0-15" x="752.257378" y="91.005968"/>
  <use xlink:href="#glyph0-4" x="759.479601" y="91.005968"/>
  <use xlink:href="#glyph0-16" x="767.535156" y="91.005968"/>
  <use xlink:href="#glyph0-17" x="777.257378" y="91.005968"/>
  <use xlink:href="#glyph0-4" x="787.257378" y="91.005968"/>
</g>
<g style="fill:rgb(0%,0%,0%);fill-opacity:1;">
  <use xlink:href="#glyph0-14" x="700.035156" y="107.005968"/>
  <use xlink:href="#glyph0-9" x="708.924045" y="107.005968"/>
  <use xlink:href="#glyph0-18" x="717.812934" y="107.005968"/>
</g>
<path style="fill-rule:evenodd;fill:rgb(100%,100%,100%);fill-opacity:1;stroke-width:0.1;stroke-linecap:butt;stroke-linejoin:miter;stroke:rgb(0%,0%,0%);stroke-opacity:1;stroke-miterlimit:10;" d="M 44.853672 8.566211 C 44.853672 10.204492 43.525742 11.532422 41.887461 11.532422 C 40.24918 11.532422 38.92125 10.204492 38.92125 8.566211 C 38.92125 6.928125 40.24918 5.6 41.887461 5.6 C 43.525742 5.6 44.853672 6.928125 44.853672 8.566211 " transform="matrix(20,0,0,20,110.7,-107)"/>
<g style="fill:rgb(0%,0%,0%);fill-opacity:1;">
  <use xlink:href="#glyph0-4" x="931.652344" y="64.330187"/>
  <use xlink:href="#glyph0-3" x="939.707899" y="64.330187"/>
  <use xlink:href="#glyph0-19" x="947.485677" y="64.330187"/>
  <use xlink:href="#glyph0-20" x="957.207899" y="64.330187"/>
</g>
<path style="fill-rule:evenodd;fill:rgb(100%,100%,100%);fill-opacity:1;stroke-width:0.15;stroke-linecap:butt;stroke-linejoin:miter;stroke:rgb(0%,0%,0%);stroke-opacity:1;stroke-miterlimit:10;" d="M 30.699961 18.25 L 38.399961 11.6 L 38.399961 23.2 L 30.699961 32.1 Z M 30.699961 18.25 " transform="matrix(20,0,0,20,110.7,-107)"/>
<path style="fill:none;stroke-width:0.15;stroke-linecap:butt;stroke-linejoin:miter;stroke:rgb(0%,0%,0%);stroke-opacity:1;stroke-miterlimit:10;" d="M 36.265195 10.476953 L 32.949961 13.15 L 33.949961 17.45 " transform="matrix(20,0,0,20,110.7,-107)"/>
<path style="fill-rule:evenodd;fill:rgb(100%,100%,100%);fill-opacity:1;stroke-width:0.1;stroke-linecap:butt;stroke-linejoin:miter;stroke:rgb(0%,0%,0%);stroke-opacity:1;stroke-miterlimit:10;" d="M 35.830039 17.184961 L 35.330039 17.934961 L 34.330039 17.934961 L 33.830039 17.184961 L 34.330039 16.434961 L 35.330039 16.434961 Z M 35.830039 17.184961 " transform="matrix(20,0,0,20,110.7,-107)"/>
<g style="fill:rgb(0%,0%,0%);fill-opacity:1;">
  <use xlink:href="#glyph1-1" x="795.640625" y="234.811903"/>
  <use xlink:href="#glyph1-2" x="803.418403" y="234.811903"/>
  <use xlink:href="#glyph1-3" x="811.196181" y="234.811903"/>
</g>
<path style="fill-rule:evenodd;fill:rgb(100%,100%,100%);fill-opacity:1;stroke-width:0.1;stroke-linecap:butt;stroke-linejoin:miter;stroke:rgb(0%,0%,0%);stroke-opacity:1;stroke-miterlimit:10;" d="M 35.435117 17.584961 L 34.935117 18.334961 L 33.935117 18.334961 L 33.435117 17.584961 L 33.935117 16.834961 L 34.935117 16.834961 Z M 35.435117 17.584961 " transform="matrix(20,0,0,20,110.7,-107)"/>
<g style="fill:rgb(0%,0%,0%);fill-opacity:1;">
  <use xlink:href="#glyph1-1" x="787.742188" y="242.811903"/>
  <use xlink:href="#glyph1-2" x="795.519965" y="242.811903"/>
  <use xlink:href="#glyph1-3" x="803.297743" y="242.811903"/>
</g>
<path style="fill-rule:evenodd;fill:rgb(100%,100%,100%);fill-opacity:1;stroke-width:0.1;stroke-linecap:butt;stroke-linejoin:miter;stroke:rgb(0%,0%,0%);stroke-opacity:1;stroke-miterlimit:10;" d="M 34.949961 18.2 L 34.449961 18.95 L 33.449961 18.95 L 32.949961 18.2 L 33.449961 17.45 L 34.449961 17.45 Z M 34.949961 18.2 " transform="matrix(20,0,0,20,110.7,-107)"/>
<g style="fill:rgb(0%,0%,0%);fill-opacity:1;">
  <use xlink:href="#glyph1-1" x="778.039062" y="255.112684"/>
  <use xlink:href="#glyph1-2" x="785.81684" y="255.112684"/>
  <use xlink:href="#glyph1-3" x="793.594618" y="255.112684"/>
</g>
<path style="fill-rule:evenodd;fill:rgb(100%,100%,100%);fill-opacity:1;stroke-width:0.25;stroke-linecap:butt;stroke-linejoin:miter;stroke:rgb(0%,0%,0%);stroke-opacity:1;stroke-miterlimit:10;" d="M 36.549961 20.9 C 36.549961 21.645508 35.352305 22.25 33.874961 22.25 C 32.397617 22.25 31.199961 21.645508 31.199961 20.9 C 31.199961 20.154492 32.397617 19.55 33.874961 19.55 C 35.352305 19.55 36.549961 20.154492 36.549961 20.9 " transform="matrix(20,0,0,20,110.7,-107)"/>
<g style="fill:rgb(0%,0%,0%);fill-opacity:1;">
  <use xlink:href="#glyph0-9" x="779.765625" y="306.005968"/>
  <use xlink:href="#glyph0-13" x="788.654514" y="306.005968"/>
  <use xlink:href="#glyph0-15" x="796.432292" y="306.005968"/>
</g>
<g style="fill:rgb(0%,0%,0%);fill-opacity:1;">
  <use xlink:href="#glyph0-21" x="758.105469" y="322.005968"/>
  <use xlink:href="#glyph0-22" x="763.105469" y="322.005968"/>
  <use xlink:href="#glyph0-23" x="771.161024" y="322.005968"/>
  <use xlink:href="#glyph0-24" x="779.21658" y="322.005968"/>
  <use xlink:href="#glyph0-25" x="785.883247" y="322.005968"/>
  <use xlink:href="#glyph0-26" x="790.883247" y="322.005968"/>
  <use xlink:href="#glyph0-22" x="796.161024" y="322.005968"/>
  <use xlink:href="#glyph0-23" x="804.21658" y="322.005968"/>
  <use xlink:href="#glyph0-27" x="812.272135" y="322.005968"/>
  <use xlink:href="#glyph0-28" x="820.327691" y="322.005968"/>
</g>
<path style="fill-rule:evenodd;fill:rgb(100%,100%,100%);fill-opacity:1;stroke-width:0.25;stroke-linecap:butt;stroke-linejoin:miter;stroke:rgb(0%,0%,0%);stroke-opacity:1;stroke-miterlimit:10;" d="M 28.999961 13.6 L 31.799961 13.6 L 31.799961 15.65 L 28.999961 15.65 Z M 28.999961 13.6 " transform="matrix(20,0,0,20,110.7,-107)"/>
<g style="fill:rgb(0%,0%,0%);fill-opacity:1;">
  <use xlink:href="#glyph0-8" x="702.3125" y="185.505968"/>
  <use xlink:href="#glyph0-13" x="706.201389" y="185.505968"/>
  <use xlink:href="#glyph0-24" x="713.701389" y="185.505968"/>
  <use xlink:href="#glyph0-29" x="720.368056" y="185.505968"/>
  <use xlink:href="#glyph0-30" x="728.145833" y="185.505968"/>
</g>
<g style="fill:rgb(0%,0%,0%);fill-opacity:1;">
  <use xlink:href="#glyph0-8" x="708.5625" y="201.505968"/>
  <use xlink:href="#glyph0-31" x="712.451389" y="201.505968"/>
  <use xlink:href="#glyph0-4" x="720.784722" y="201.505968"/>
</g>
<g style="fill:rgb(0%,0%,0%);fill-opacity:1;">
  <use xlink:href="#glyph0-10" x="838.0625" y="201.005968"/>
  <use xlink:href="#glyph0-32" x="846.673611" y="201.005968"/>
  <use xlink:href="#glyph0-13" x="855.5625" y="201.005968"/>
</g>
<g style="fill:rgb(0%,0%,0%);fill-opacity:1;">
  <use xlink:href="#glyph0-14" x="838.0625" y="217.005968"/>
  <use xlink:href="#glyph0-9" x="846.951389" y="217.005968"/>
  <use xlink:href="#glyph0-18" x="855.840278" y="217.005968"/>
</g>
<path style="fill-rule:evenodd;fill:rgb(100%,100%,100%);fill-opacity:1;stroke-width:0.1;stroke-linecap:butt;stroke-linejoin:miter;stroke:rgb(0%,0%,0%);stroke-opacity:1;stroke-miterlimit:10;" d="M 35.335117 26.534961 L 34.835117 27.284961 L 33.835117 27.284961 L 33.335117 26.534961 L 33.835117 25.784961 L 34.835117 25.784961 Z M 35.335117 26.534961 " transform="matrix(20,0,0,20,110.7,-107)"/>
<g style="fill:rgb(0%,0%,0%);fill-opacity:1;">
  <use xlink:href="#glyph1-1" x="785.742188" y="421.811903"/>
  <use xlink:href="#glyph1-2" x="793.519965" y="421.811903"/>
  <use xlink:href="#glyph1-4" x="801.297743" y="421.811903"/>
</g>
<path style="fill-rule:evenodd;fill:rgb(100%,100%,100%);fill-opacity:1;stroke-width:0.1;stroke-linecap:butt;stroke-linejoin:miter;stroke:rgb(0%,0%,0%);stroke-opacity:1;stroke-miterlimit:10;" d="M 37.65582 27.484961 L 36.945469 28.550586 L 35.524766 28.550586 L 34.814414 27.484961 L 35.524766 26.419531 L 36.945469 26.419531 Z M 37.65582 27.484961 " transform="matrix(20,0,0,20,110.7,-107)"/>
<g style="fill:rgb(0%,0%,0%);fill-opacity:1;">
  <use xlink:href="#glyph1-5" x="819.855469" y="440.811903"/>
  <use xlink:href="#glyph1-6" x="827.633247" y="440.811903"/>
  <use xlink:href="#glyph1-7" x="835.411024" y="440.811903"/>
  <use xlink:href="#glyph1-8" x="843.188802" y="440.811903"/>
</g>
<path style="fill-rule:evenodd;fill:rgb(100%,100%,100%);fill-opacity:1;stroke-width:0.25;stroke-linecap:butt;stroke-linejoin:miter;stroke:rgb(0%,0%,0%);stroke-opacity:1;stroke-miterlimit:10;" d="M 36.499961 23.759961 C 36.499961 24.505664 35.302305 25.109961 33.824961 25.109961 C 32.347617 25.109961 31.149961 24.505664 31.149961 23.759961 C 31.149961 23.014453 32.347617 22.409961 33.824961 22.409961 C 35.302305 22.409961 36.499961 23.014453 36.499961 23.759961 " transform="matrix(20,0,0,20,110.7,-107)"/>
<g style="fill:rgb(0%,0%,0%);fill-opacity:1;">
  <use xlink:href="#glyph0-17" x="769.175781" y="363.205187"/>
  <use xlink:href="#glyph0-9" x="779.175781" y="363.205187"/>
  <use xlink:href="#glyph0-10" x="787.509115" y="363.205187"/>
  <use xlink:href="#glyph0-1" x="796.398003" y="363.205187"/>
  <use xlink:href="#glyph0-13" x="804.453559" y="363.205187"/>
</g>
<g style="fill:rgb(0%,0%,0%);fill-opacity:1;">
  <use xlink:href="#glyph0-33" x="764.742188" y="379.205187"/>
  <use xlink:href="#glyph0-34" x="772.797743" y="379.205187"/>
  <use xlink:href="#glyph0-29" x="780.575521" y="379.205187"/>
  <use xlink:href="#glyph0-35" x="788.353299" y="379.205187"/>
  <use xlink:href="#glyph0-36" x="800.853299" y="379.205187"/>
  <use xlink:href="#glyph0-23" x="808.631076" y="379.205187"/>
</g>
<path style="fill-rule:evenodd;fill:rgb(100%,100%,100%);fill-opacity:1;stroke-width:0.25;stroke-linecap:butt;stroke-linejoin:miter;stroke:rgb(0%,0%,0%);stroke-opacity:1;stroke-miterlimit:10;" d="M 28.999961 10.9 L 31.949961 10.9 L 31.949961 12.9 L 28.999961 12.9 Z M 28.999961 10.9 " transform="matrix(20,0,0,20,110.7,-107)"/>
<g style="fill:rgb(0%,0%,0%);fill-opacity:1;">
  <use xlink:href="#glyph0-17" x="698.675781" y="131.005968"/>
  <use xlink:href="#glyph0-9" x="708.675781" y="131.005968"/>
  <use xlink:href="#glyph0-10" x="717.009115" y="131.005968"/>
  <use xlink:href="#glyph0-1" x="725.898003" y="131.005968"/>
  <use xlink:href="#glyph0-13" x="733.953559" y="131.005968"/>
</g>
<g style="fill:rgb(0%,0%,0%);fill-opacity:1;">
  <use xlink:href="#glyph0-16" x="703.402344" y="147.005968"/>
  <use xlink:href="#glyph0-11" x="713.124566" y="147.005968"/>
  <use xlink:href="#glyph0-15" x="722.56901" y="147.005968"/>
  <use xlink:href="#glyph0-15" x="729.791233" y="147.005968"/>
</g>
<path style="fill-rule:evenodd;fill:rgb(100%,100%,100%);fill-opacity:1;stroke-width:0.1;stroke-linecap:butt;stroke-linejoin:miter;stroke:rgb(0%,0%,0%);stroke-opacity:1;stroke-miterlimit:10;" d="M 39.549961 9.3 C 39.549961 10.308008 38.732969 11.125 37.724961 11.125 C 36.717148 11.125 35.899961 10.308008 35.899961 9.3 C 35.899961 8.291992 36.717148 7.475 37.724961 7.475 C 38.732969 7.475 39.549961 8.291992 39.549961 9.3 " transform="matrix(20,0,0,20,110.7,-107)"/>
<g style="fill:rgb(0%,0%,0%);fill-opacity:1;">
  <use xlink:href="#glyph0-5" x="837.699219" y="81.005968"/>
  <use xlink:href="#glyph0-10" x="848.81033" y="81.005968"/>
  <use xlink:href="#glyph0-32" x="857.421441" y="81.005968"/>
  <use xlink:href="#glyph0-14" x="866.31033" y="81.005968"/>
  <use xlink:href="#glyph0-15" x="875.199219" y="81.005968"/>
  <use xlink:href="#glyph0-10" x="882.699219" y="81.005968"/>
  <use xlink:href="#glyph0-12" x="891.588108" y="81.005968"/>
</g>
<path style="fill-rule:evenodd;fill:rgb(13.333334%,13.333334%,13.333334%);fill-opacity:1;stroke-width:0.1;stroke-linecap:butt;stroke-linejoin:miter;stroke:rgb(0%,0%,0%);stroke-opacity:1;stroke-miterlimit:10;" d="M 39.556016 25 C 39.658359 25 40.06793 25.051172 40.170273 25.153516 C 40.272813 25.255859 40.272813 25.40957 40.170273 25.460742 C 40.06793 25.511914 39.863242 25.358398 39.863242 25.307227 C 39.863242 25.255859 39.965586 25.255859 39.914414 25.204688 C 39.863242 25.153516 39.863242 25.204688 39.81207 25.204688 C 39.760898 25.204688 39.81207 25.204688 39.81207 25.255859 C 39.81207 25.307227 39.81207 25.40957 39.863242 25.40957 C 39.914414 25.40957 39.914414 25.40957 39.914414 25.460742 C 39.914414 25.511914 40.016758 25.767773 40.016758 25.870313 C 40.016758 25.972656 40.06793 26.075 39.965586 26.075 C 39.863242 26.075 39.248984 26.075 39.146641 26.075 C 39.044102 26.075 39.095273 25.972656 39.095273 25.870313 C 39.095273 25.767773 39.197813 25.511914 39.197813 25.460742 C 39.197813 25.40957 39.197813 25.40957 39.248984 25.40957 C 39.300156 25.40957 39.300156 25.307227 39.300156 25.255859 C 39.300156 25.204688 39.351328 25.204688 39.300156 25.204688 C 39.248984 25.204688 39.248984 25.153516 39.197813 25.204688 C 39.146641 25.255859 39.248984 25.255859 39.248984 25.307227 C 39.248984 25.358398 39.044102 25.511914 38.941758 25.460742 C 38.839414 25.40957 38.839414 25.255859 38.941758 25.153516 C 39.044102 25.051172 39.453672 25 39.556016 25 Z M 39.556016 25 " transform="matrix(20,0,0,20,110.7,-107)"/>
<path style="fill-rule:evenodd;fill:rgb(46.666667%,46.666667%,46.666667%);fill-opacity:1;stroke-width:0.1;stroke-linecap:butt;stroke-linejoin:miter;stroke:rgb(0%,0%,0%);stroke-opacity:1;stroke-miterlimit:10;" d="M 39.771055 25.470898 C 39.771055 25.757617 39.340977 25.757617 39.340977 25.470898 C 39.340977 25.184375 39.771055 25.184375 39.771055 25.470898 " transform="matrix(20,0,0,20,110.7,-107)"/>
<path style="fill-rule:evenodd;fill:rgb(80.000001%,80.000001%,80.000001%);fill-opacity:1;stroke-width:0.1;stroke-linecap:butt;stroke-linejoin:miter;stroke:rgb(0%,0%,0%);stroke-opacity:1;stroke-miterlimit:10;" d="M 39.699375 25.358398 C 39.699375 25.399219 39.638047 25.399219 39.638047 25.358398 C 39.638047 25.317383 39.699375 25.317383 39.699375 25.358398 " transform="matrix(20,0,0,20,110.7,-107)"/>
<path style="fill-rule:evenodd;fill:rgb(80.000001%,80.000001%,80.000001%);fill-opacity:1;stroke-width:0.1;stroke-linecap:butt;stroke-linejoin:miter;stroke:rgb(0%,0%,0%);stroke-opacity:1;stroke-miterlimit:10;" d="M 39.627695 25.317383 C 39.627695 25.358398 39.566367 25.358398 39.566367 25.317383 C 39.566367 25.276367 39.627695 25.276367 39.627695 25.317383 " transform="matrix(20,0,0,20,110.7,-107)"/>
<path style="fill-rule:evenodd;fill:rgb(80.000001%,80.000001%,80.000001%);fill-opacity:1;stroke-width:0.1;stroke-linecap:butt;stroke-linejoin:miter;stroke:rgb(0%,0%,0%);stroke-opacity:1;stroke-miterlimit:10;" d="M 39.545859 25.317383 C 39.545859 25.358398 39.484336 25.358398 39.484336 25.317383 C 39.484336 25.276367 39.545859 25.276367 39.545859 25.317383 " transform="matrix(20,0,0,20,110.7,-107)"/>
<path style="fill-rule:evenodd;fill:rgb(80.000001%,80.000001%,80.000001%);fill-opacity:1;stroke-width:0.1;stroke-linecap:butt;stroke-linejoin:miter;stroke:rgb(0%,0%,0%);stroke-opacity:1;stroke-miterlimit:10;" d="M 39.47418 25.358398 C 39.47418 25.399219 39.412656 25.399219 39.412656 25.358398 C 39.412656 25.317383 39.47418 25.317383 39.47418 25.358398 " transform="matrix(20,0,0,20,110.7,-107)"/>
<path style="fill-rule:evenodd;fill:rgb(80.000001%,80.000001%,80.000001%);fill-opacity:1;stroke-width:0.1;stroke-linecap:butt;stroke-linejoin:miter;stroke:rgb(0%,0%,0%);stroke-opacity:1;stroke-miterlimit:10;" d="M 39.433164 25.430078 C 39.433164 25.470898 39.371836 25.470898 39.371836 25.430078 C 39.371836 25.389063 39.433164 25.389063 39.433164 25.430078 " transform="matrix(20,0,0,20,110.7,-107)"/>
<path style="fill-rule:evenodd;fill:rgb(80.000001%,80.000001%,80.000001%);fill-opacity:1;stroke-width:0.1;stroke-linecap:butt;stroke-linejoin:miter;stroke:rgb(0%,0%,0%);stroke-opacity:1;stroke-miterlimit:10;" d="M 39.433164 25.511914 C 39.433164 25.55293 39.371836 25.55293 39.371836 25.511914 C 39.371836 25.470898 39.433164 25.470898 39.433164 25.511914 " transform="matrix(20,0,0,20,110.7,-107)"/>
<path style="fill-rule:evenodd;fill:rgb(80.000001%,80.000001%,80.000001%);fill-opacity:1;stroke-width:0.1;stroke-linecap:butt;stroke-linejoin:miter;stroke:rgb(0%,0%,0%);stroke-opacity:1;stroke-miterlimit:10;" d="M 39.47418 25.583594 C 39.47418 25.624609 39.412656 25.624609 39.412656 25.583594 C 39.412656 25.542578 39.47418 25.542578 39.47418 25.583594 " transform="matrix(20,0,0,20,110.7,-107)"/>
<path style="fill-rule:evenodd;fill:rgb(80.000001%,80.000001%,80.000001%);fill-opacity:1;stroke-width:0.1;stroke-linecap:butt;stroke-linejoin:miter;stroke:rgb(0%,0%,0%);stroke-opacity:1;stroke-miterlimit:10;" d="M 39.545859 25.624609 C 39.545859 25.66543 39.484336 25.66543 39.484336 25.624609 C 39.484336 25.583594 39.545859 25.583594 39.545859 25.624609 " transform="matrix(20,0,0,20,110.7,-107)"/>
<path style="fill-rule:evenodd;fill:rgb(80.000001%,80.000001%,80.000001%);fill-opacity:1;stroke-width:0.1;stroke-linecap:butt;stroke-linejoin:miter;stroke:rgb(0%,0%,0%);stroke-opacity:1;stroke-miterlimit:10;" d="M 39.627695 25.624609 C 39.627695 25.66543 39.566367 25.66543 39.566367 25.624609 C 39.566367 25.583594 39.627695 25.583594 39.627695 25.624609 " transform="matrix(20,0,0,20,110.7,-107)"/>
<path style="fill-rule:evenodd;fill:rgb(80.000001%,80.000001%,80.000001%);fill-opacity:1;stroke-width:0.1;stroke-linecap:butt;stroke-linejoin:miter;stroke:rgb(0%,0%,0%);stroke-opacity:1;stroke-miterlimit:10;" d="M 39.699375 25.583594 C 39.699375 25.624609 39.638047 25.624609 39.638047 25.583594 C 39.638047 25.542578 39.699375 25.542578 39.699375 25.583594 " transform="matrix(20,0,0,20,110.7,-107)"/>
<path style="fill-rule:evenodd;fill:rgb(66.666669%,66.666669%,66.666669%);fill-opacity:1;stroke-width:0.1;stroke-linecap:butt;stroke-linejoin:miter;stroke:rgb(0%,0%,0%);stroke-opacity:1;stroke-miterlimit:10;" d="M 39.658359 25.470898 C 39.658359 25.607422 39.453672 25.607422 39.453672 25.470898 C 39.453672 25.334375 39.658359 25.334375 39.658359 25.470898 " transform="matrix(20,0,0,20,110.7,-107)"/>
<path style="fill-rule:evenodd;fill:rgb(66.666669%,66.666669%,66.666669%);fill-opacity:1;stroke-width:0.1;stroke-linecap:butt;stroke-linejoin:miter;stroke:rgb(0%,0%,0%);stroke-opacity:1;stroke-miterlimit:10;" d="M 39.709727 25.52207 C 39.730039 25.532422 39.740391 25.52207 39.771055 25.52207 C 39.801719 25.52207 39.791563 25.511914 39.791563 25.532422 C 39.781406 25.55293 39.791563 25.55293 39.760898 25.55293 C 39.730039 25.55293 39.730039 25.563086 39.689219 25.532422 C 39.648203 25.511914 39.678867 25.501758 39.709727 25.52207 Z M 39.709727 25.52207 " transform="matrix(20,0,0,20,110.7,-107)"/>
<g style="fill:rgb(0%,0%,0%);fill-opacity:1;">
  <use xlink:href="#glyph0-1" x="893.949219" y="429.306749"/>
  <use xlink:href="#glyph0-1" x="902.004774" y="429.306749"/>
  <use xlink:href="#glyph0-19" x="910.06033" y="429.306749"/>
  <use xlink:href="#glyph0-6" x="919.782552" y="429.306749"/>
  <use xlink:href="#glyph0-30" x="923.949219" y="429.306749"/>
  <use xlink:href="#glyph0-37" x="930.893663" y="429.306749"/>
  <use xlink:href="#glyph0-38" x="934.504774" y="429.306749"/>
  <use xlink:href="#glyph0-29" x="938.115885" y="429.306749"/>
  <use xlink:href="#glyph0-23" x="945.893663" y="429.306749"/>
  <use xlink:href="#glyph0-25" x="953.949219" y="429.306749"/>
</g>
<path style="fill-rule:evenodd;fill:rgb(100%,100%,100%);fill-opacity:1;stroke-width:0.1;stroke-linecap:butt;stroke-linejoin:miter;stroke:rgb(0%,0%,0%);stroke-opacity:1;stroke-miterlimit:10;" d="M -5.435 9 L 26.315 9 L 26.315 35.75 L -5.435 35.75 Z M -5.435 9 " transform="matrix(20,0,0,20,110.7,-107)"/>
<path style="fill-rule:evenodd;fill:rgb(100%,100%,100%);fill-opacity:1;stroke-width:0.1;stroke-linecap:butt;stroke-linejoin:miter;stroke:rgb(0%,0%,0%);stroke-opacity:1;stroke-miterlimit:10;" d="M 26.265 9.05 L 13.165 9.05 L 26.265 20.3 Z M 26.265 9.05 " transform="matrix(20,0,0,20,110.7,-107)"/>
<g style="fill:rgb(0%,0%,0%);fill-opacity:1;">
  <use xlink:href="#glyph0-1" x="24.5" y="88.005968"/>
  <use xlink:href="#glyph0-2" x="32.555556" y="88.005968"/>
  <use xlink:href="#glyph0-1" x="40.333333" y="88.005968"/>
  <use xlink:href="#glyph0-3" x="48.388889" y="88.005968"/>
  <use xlink:href="#glyph0-4" x="56.166667" y="88.005968"/>
  <use xlink:href="#glyph0-5" x="64.222222" y="88.005968"/>
  <use xlink:href="#glyph0-6" x="75.333333" y="88.005968"/>
  <use xlink:href="#glyph0-7" x="79.5" y="88.005968"/>
  <use xlink:href="#glyph0-14" x="89.222222" y="88.005968"/>
  <use xlink:href="#glyph0-8" x="98.111111" y="88.005968"/>
  <use xlink:href="#glyph0-16" x="102" y="88.005968"/>
</g>
<g style="fill:rgb(0%,0%,0%);fill-opacity:1;">
  <use xlink:href="#glyph0-11" x="530.332031" y="90.005968"/>
  <use xlink:href="#glyph0-12" x="539.776476" y="90.005968"/>
  <use xlink:href="#glyph0-13" x="549.22092" y="90.005968"/>
  <use xlink:href="#glyph0-9" x="556.998698" y="90.005968"/>
  <use xlink:href="#glyph0-8" x="565.887587" y="90.005968"/>
  <use xlink:href="#glyph0-14" x="569.776476" y="90.005968"/>
  <use xlink:href="#glyph0-8" x="578.665365" y="90.005968"/>
  <use xlink:href="#glyph0-15" x="582.554253" y="90.005968"/>
  <use xlink:href="#glyph0-4" x="589.776476" y="90.005968"/>
  <use xlink:href="#glyph0-16" x="597.832031" y="90.005968"/>
  <use xlink:href="#glyph0-17" x="607.554253" y="90.005968"/>
  <use xlink:href="#glyph0-4" x="617.554253" y="90.005968"/>
</g>
<g style="fill:rgb(0%,0%,0%);fill-opacity:1;">
  <use xlink:href="#glyph0-14" x="530.332031" y="106.005968"/>
  <use xlink:href="#glyph0-9" x="539.22092" y="106.005968"/>
  <use xlink:href="#glyph0-18" x="548.109809" y="106.005968"/>
</g>
<path style="fill-rule:evenodd;fill:rgb(100%,100%,100%);fill-opacity:1;stroke-width:0.1;stroke-linecap:butt;stroke-linejoin:miter;stroke:rgb(0%,0%,0%);stroke-opacity:1;stroke-miterlimit:10;" d="M 11.118711 8.466211 C 11.118711 10.104492 9.790781 11.432422 8.1525 11.432422 C 6.514219 11.432422 5.186289 10.104492 5.186289 8.466211 C 5.186289 6.828125 6.514219 5.5 8.1525 5.5 C 9.790781 5.5 11.118711 6.828125 11.118711 8.466211 " transform="matrix(20,0,0,20,110.7,-107)"/>
<g style="fill:rgb(0%,0%,0%);fill-opacity:1;">
  <use xlink:href="#glyph0-4" x="256.953125" y="62.330187"/>
  <use xlink:href="#glyph0-3" x="265.008681" y="62.330187"/>
  <use xlink:href="#glyph0-19" x="272.786458" y="62.330187"/>
  <use xlink:href="#glyph0-20" x="282.508681" y="62.330187"/>
</g>
<path style="fill-rule:evenodd;fill:rgb(100%,100%,100%);fill-opacity:1;stroke-width:0.15;stroke-linecap:butt;stroke-linejoin:miter;stroke:rgb(0%,0%,0%);stroke-opacity:1;stroke-miterlimit:10;" d="M 23.965 18.35 L 16.215 11.7 L 16.315 23.1 L 23.965 32.05 Z M 23.965 18.35 " transform="matrix(20,0,0,20,110.7,-107)"/>
<path style="fill:none;stroke-width:0.15;stroke-linecap:butt;stroke-linejoin:miter;stroke:rgb(0%,0%,0%);stroke-opacity:1;stroke-miterlimit:10;" d="M 14.56207 9.441992 L 20.615 12.05 L 18.015 16.4 " transform="matrix(20,0,0,20,110.7,-107)"/>
<path style="fill-rule:evenodd;fill:rgb(100%,100%,100%);fill-opacity:1;stroke-width:0.25;stroke-linecap:butt;stroke-linejoin:miter;stroke:rgb(0%,0%,0%);stroke-opacity:1;stroke-miterlimit:10;" d="M 23.865 19.95 C 23.865 20.695508 22.667344 21.3 21.19 21.3 C 19.712656 21.3 18.515 20.695508 18.515 19.95 C 18.515 19.204492 19.712656 18.6 21.19 18.6 C 22.667344 18.6 23.865 19.204492 23.865 19.95 " transform="matrix(20,0,0,20,110.7,-107)"/>
<g style="fill:rgb(0%,0%,0%);fill-opacity:1;">
  <use xlink:href="#glyph0-9" x="526.066406" y="287.005968"/>
  <use xlink:href="#glyph0-13" x="534.955295" y="287.005968"/>
  <use xlink:href="#glyph0-15" x="542.733073" y="287.005968"/>
</g>
<g style="fill:rgb(0%,0%,0%);fill-opacity:1;">
  <use xlink:href="#glyph0-21" x="504.40625" y="303.005968"/>
  <use xlink:href="#glyph0-22" x="509.40625" y="303.005968"/>
  <use xlink:href="#glyph0-23" x="517.461806" y="303.005968"/>
  <use xlink:href="#glyph0-24" x="525.517361" y="303.005968"/>
  <use xlink:href="#glyph0-25" x="532.184028" y="303.005968"/>
  <use xlink:href="#glyph0-26" x="537.184028" y="303.005968"/>
  <use xlink:href="#glyph0-22" x="542.461806" y="303.005968"/>
  <use xlink:href="#glyph0-23" x="550.517361" y="303.005968"/>
  <use xlink:href="#glyph0-27" x="558.572917" y="303.005968"/>
  <use xlink:href="#glyph0-28" x="566.628472" y="303.005968"/>
</g>
<path style="fill-rule:evenodd;fill:rgb(100%,100%,100%);fill-opacity:1;stroke-width:0.25;stroke-linecap:butt;stroke-linejoin:miter;stroke:rgb(0%,0%,0%);stroke-opacity:1;stroke-miterlimit:10;" d="M 22.665 13.8 L 25.465 13.8 L 25.465 15.85 L 22.665 15.85 Z M 22.665 13.8 " transform="matrix(20,0,0,20,110.7,-107)"/>
<g style="fill:rgb(0%,0%,0%);fill-opacity:1;">
  <use xlink:href="#glyph0-8" x="575.613281" y="189.505968"/>
  <use xlink:href="#glyph0-13" x="579.50217" y="189.505968"/>
  <use xlink:href="#glyph0-24" x="587.00217" y="189.505968"/>
  <use xlink:href="#glyph0-29" x="593.668837" y="189.505968"/>
  <use xlink:href="#glyph0-30" x="601.446615" y="189.505968"/>
</g>
<g style="fill:rgb(0%,0%,0%);fill-opacity:1;">
  <use xlink:href="#glyph0-8" x="581.863281" y="205.505968"/>
  <use xlink:href="#glyph0-31" x="585.75217" y="205.505968"/>
  <use xlink:href="#glyph0-4" x="594.085503" y="205.505968"/>
</g>
<g style="fill:rgb(0%,0%,0%);fill-opacity:1;">
  <use xlink:href="#glyph0-10" x="518.363281" y="239.005968"/>
  <use xlink:href="#glyph0-32" x="526.974392" y="239.005968"/>
  <use xlink:href="#glyph0-13" x="535.863281" y="239.005968"/>
</g>
<g style="fill:rgb(0%,0%,0%);fill-opacity:1;">
  <use xlink:href="#glyph0-14" x="518.363281" y="255.005968"/>
  <use xlink:href="#glyph0-9" x="527.25217" y="255.005968"/>
  <use xlink:href="#glyph0-18" x="536.141059" y="255.005968"/>
</g>
<path style="fill-rule:evenodd;fill:rgb(100%,100%,100%);fill-opacity:1;stroke-width:0.1;stroke-linecap:butt;stroke-linejoin:miter;stroke:rgb(0%,0%,0%);stroke-opacity:1;stroke-miterlimit:10;" d="M 21.800156 27.084961 L 21.300156 27.834961 L 20.300156 27.834961 L 19.800156 27.084961 L 20.300156 26.334961 L 21.300156 26.334961 Z M 21.800156 27.084961 " transform="matrix(20,0,0,20,110.7,-107)"/>
<g style="fill:rgb(0%,0%,0%);fill-opacity:1;">
  <use xlink:href="#glyph1-1" x="515.042969" y="432.811903"/>
  <use xlink:href="#glyph1-2" x="522.820747" y="432.811903"/>
  <use xlink:href="#glyph1-4" x="530.598524" y="432.811903"/>
</g>
<path style="fill-rule:evenodd;fill:rgb(100%,100%,100%);fill-opacity:1;stroke-width:0.1;stroke-linecap:butt;stroke-linejoin:miter;stroke:rgb(0%,0%,0%);stroke-opacity:1;stroke-miterlimit:10;" d="M 20.470859 28.084961 L 19.760508 29.150586 L 18.339805 29.150586 L 17.629453 28.084961 L 18.339805 27.019531 L 19.760508 27.019531 Z M 20.470859 28.084961 " transform="matrix(20,0,0,20,110.7,-107)"/>
<g style="fill:rgb(0%,0%,0%);fill-opacity:1;">
  <use xlink:href="#glyph1-5" x="476.15625" y="452.811903"/>
  <use xlink:href="#glyph1-6" x="483.934028" y="452.811903"/>
  <use xlink:href="#glyph1-7" x="491.711806" y="452.811903"/>
  <use xlink:href="#glyph1-8" x="499.489583" y="452.811903"/>
</g>
<path style="fill-rule:evenodd;fill:rgb(100%,100%,100%);fill-opacity:1;stroke-width:0.25;stroke-linecap:butt;stroke-linejoin:miter;stroke:rgb(0%,0%,0%);stroke-opacity:1;stroke-miterlimit:10;" d="M 23.615 23.459961 C 23.615 24.205664 22.417344 24.809961 20.94 24.809961 C 19.462656 24.809961 18.265 24.205664 18.265 23.459961 C 18.265 22.714453 19.462656 22.109961 20.94 22.109961 C 22.417344 22.109961 23.615 22.714453 23.615 23.459961 " transform="matrix(20,0,0,20,110.7,-107)"/>
<g style="fill:rgb(0%,0%,0%);fill-opacity:1;">
  <use xlink:href="#glyph0-17" x="511.476562" y="357.205187"/>
  <use xlink:href="#glyph0-9" x="521.476562" y="357.205187"/>
  <use xlink:href="#glyph0-10" x="529.809896" y="357.205187"/>
  <use xlink:href="#glyph0-1" x="538.698785" y="357.205187"/>
  <use xlink:href="#glyph0-13" x="546.75434" y="357.205187"/>
</g>
<g style="fill:rgb(0%,0%,0%);fill-opacity:1;">
  <use xlink:href="#glyph0-33" x="507.042969" y="373.205187"/>
  <use xlink:href="#glyph0-34" x="515.098524" y="373.205187"/>
  <use xlink:href="#glyph0-29" x="522.876302" y="373.205187"/>
  <use xlink:href="#glyph0-35" x="530.65408" y="373.205187"/>
  <use xlink:href="#glyph0-36" x="543.15408" y="373.205187"/>
  <use xlink:href="#glyph0-23" x="550.931858" y="373.205187"/>
</g>
<path style="fill-rule:evenodd;fill:rgb(100%,100%,100%);fill-opacity:1;stroke-width:0.25;stroke-linecap:butt;stroke-linejoin:miter;stroke:rgb(0%,0%,0%);stroke-opacity:1;stroke-miterlimit:10;" d="M 22.715 11.1 L 25.665 11.1 L 25.665 13.1 L 22.715 13.1 Z M 22.715 11.1 " transform="matrix(20,0,0,20,110.7,-107)"/>
<g style="fill:rgb(0%,0%,0%);fill-opacity:1;">
  <use xlink:href="#glyph0-17" x="572.976563" y="135.005968"/>
  <use xlink:href="#glyph0-9" x="582.976563" y="135.005968"/>
  <use xlink:href="#glyph0-10" x="591.309896" y="135.005968"/>
  <use xlink:href="#glyph0-1" x="600.198785" y="135.005968"/>
  <use xlink:href="#glyph0-13" x="608.25434" y="135.005968"/>
</g>
<g style="fill:rgb(0%,0%,0%);fill-opacity:1;">
  <use xlink:href="#glyph0-16" x="577.703125" y="151.005968"/>
  <use xlink:href="#glyph0-11" x="587.425347" y="151.005968"/>
  <use xlink:href="#glyph0-15" x="596.869792" y="151.005968"/>
  <use xlink:href="#glyph0-15" x="604.092014" y="151.005968"/>
</g>
<path style="fill-rule:evenodd;fill:rgb(100%,100%,100%);fill-opacity:1;stroke-width:0.1;stroke-linecap:butt;stroke-linejoin:miter;stroke:rgb(0%,0%,0%);stroke-opacity:1;stroke-miterlimit:10;" d="M 14.665 8.7 C 14.665 9.708008 13.848008 10.525 12.84 10.525 C 11.831992 10.525 11.015 9.708008 11.015 8.7 C 11.015 7.691992 11.831992 6.875 12.84 6.875 C 13.848008 6.875 14.665 7.691992 14.665 8.7 " transform="matrix(20,0,0,20,110.7,-107)"/>
<g style="fill:rgb(0%,0%,0%);fill-opacity:1;">
  <use xlink:href="#glyph0-5" x="337" y="69.005968"/>
  <use xlink:href="#glyph0-10" x="348.111111" y="69.005968"/>
  <use xlink:href="#glyph0-32" x="356.722222" y="69.005968"/>
  <use xlink:href="#glyph0-14" x="365.611111" y="69.005968"/>
  <use xlink:href="#glyph0-15" x="374.5" y="69.005968"/>
  <use xlink:href="#glyph0-10" x="382" y="69.005968"/>
  <use xlink:href="#glyph0-12" x="390.888889" y="69.005968"/>
</g>
<path style="fill-rule:evenodd;fill:rgb(85.09804%,85.09804%,80.392158%);fill-opacity:1;stroke-width:0.1;stroke-linecap:butt;stroke-linejoin:miter;stroke:rgb(0%,0%,0%);stroke-opacity:1;stroke-miterlimit:10;" d="M 13.765 25.4 L 16.64 25.4 L 16.64 26.11875 L 13.765 26.11875 Z M 13.765 25.4 " transform="matrix(20,0,0,20,110.7,-107)"/>
<path style="fill:none;stroke-width:0.05;stroke-linecap:butt;stroke-linejoin:miter;stroke:rgb(0%,0%,0%);stroke-opacity:1;stroke-miterlimit:10;" d="M 13.765 25.4 L 16.64 25.4 L 16.64 26.11875 L 13.765 26.11875 Z M 13.765 25.4 " transform="matrix(20,0,0,20,110.7,-107)"/>
<path style="fill:none;stroke-width:0.05;stroke-linecap:butt;stroke-linejoin:miter;stroke:rgb(0%,0%,0%);stroke-opacity:1;stroke-miterlimit:10;" d="M 14.268125 25.6875 L 14.19625 25.759375 " transform="matrix(20,0,0,20,110.7,-107)"/>
<path style="fill:none;stroke-width:0.05;stroke-linecap:butt;stroke-linejoin:miter;stroke:rgb(0%,0%,0%);stroke-opacity:1;stroke-miterlimit:10;" d="M 14.19625 25.759375 L 14.268125 25.83125 " transform="matrix(20,0,0,20,110.7,-107)"/>
<path style="fill:none;stroke-width:0.05;stroke-linecap:butt;stroke-linejoin:miter;stroke:rgb(0%,0%,0%);stroke-opacity:1;stroke-miterlimit:10;" d="M 14.555625 25.6875 L 14.48375 25.759375 " transform="matrix(20,0,0,20,110.7,-107)"/>
<path style="fill:none;stroke-width:0.05;stroke-linecap:butt;stroke-linejoin:miter;stroke:rgb(0%,0%,0%);stroke-opacity:1;stroke-miterlimit:10;" d="M 14.48375 25.759375 L 14.555625 25.83125 " transform="matrix(20,0,0,20,110.7,-107)"/>
<path style="fill:none;stroke-width:0.05;stroke-linecap:butt;stroke-linejoin:miter;stroke:rgb(0%,0%,0%);stroke-opacity:1;stroke-miterlimit:10;" d="M 14.843125 25.6875 L 14.77125 25.759375 " transform="matrix(20,0,0,20,110.7,-107)"/>
<path style="fill:none;stroke-width:0.05;stroke-linecap:butt;stroke-linejoin:miter;stroke:rgb(0%,0%,0%);stroke-opacity:1;stroke-miterlimit:10;" d="M 14.77125 25.759375 L 14.843125 25.83125 " transform="matrix(20,0,0,20,110.7,-107)"/>
<path style="fill:none;stroke-width:0.05;stroke-linecap:butt;stroke-linejoin:miter;stroke:rgb(0%,0%,0%);stroke-opacity:1;stroke-miterlimit:10;" d="M 15.130625 25.6875 L 15.05875 25.759375 " transform="matrix(20,0,0,20,110.7,-107)"/>
<path style="fill:none;stroke-width:0.05;stroke-linecap:butt;stroke-linejoin:miter;stroke:rgb(0%,0%,0%);stroke-opacity:1;stroke-miterlimit:10;" d="M 15.05875 25.759375 L 15.130625 25.83125 " transform="matrix(20,0,0,20,110.7,-107)"/>
<path style="fill:none;stroke-width:0.05;stroke-linecap:butt;stroke-linejoin:miter;stroke:rgb(0%,0%,0%);stroke-opacity:1;stroke-miterlimit:10;" d="M 15.418125 25.6875 L 15.34625 25.759375 " transform="matrix(20,0,0,20,110.7,-107)"/>
<path style="fill:none;stroke-width:0.05;stroke-linecap:butt;stroke-linejoin:miter;stroke:rgb(0%,0%,0%);stroke-opacity:1;stroke-miterlimit:10;" d="M 15.34625 25.759375 L 15.418125 25.83125 " transform="matrix(20,0,0,20,110.7,-107)"/>
<path style="fill:none;stroke-width:0.05;stroke-linecap:butt;stroke-linejoin:miter;stroke:rgb(0%,0%,0%);stroke-opacity:1;stroke-miterlimit:10;" d="M 15.705625 25.6875 L 15.63375 25.759375 " transform="matrix(20,0,0,20,110.7,-107)"/>
<path style="fill:none;stroke-width:0.05;stroke-linecap:butt;stroke-linejoin:miter;stroke:rgb(0%,0%,0%);stroke-opacity:1;stroke-miterlimit:10;" d="M 15.63375 25.759375 L 15.705625 25.83125 " transform="matrix(20,0,0,20,110.7,-107)"/>
<path style="fill:none;stroke-width:0.05;stroke-linecap:butt;stroke-linejoin:miter;stroke:rgb(0%,0%,0%);stroke-opacity:1;stroke-miterlimit:10;" d="M 15.993125 25.6875 L 15.92125 25.759375 " transform="matrix(20,0,0,20,110.7,-107)"/>
<path style="fill:none;stroke-width:0.05;stroke-linecap:butt;stroke-linejoin:miter;stroke:rgb(0%,0%,0%);stroke-opacity:1;stroke-miterlimit:10;" d="M 15.92125 25.759375 L 15.993125 25.83125 " transform="matrix(20,0,0,20,110.7,-107)"/>
<path style="fill:none;stroke-width:0.05;stroke-linecap:butt;stroke-linejoin:miter;stroke:rgb(0%,0%,0%);stroke-opacity:1;stroke-miterlimit:10;" d="M 16.280625 25.6875 L 16.20875 25.759375 " transform="matrix(20,0,0,20,110.7,-107)"/>
<path style="fill:none;stroke-width:0.05;stroke-linecap:butt;stroke-linejoin:miter;stroke:rgb(0%,0%,0%);stroke-opacity:1;stroke-miterlimit:10;" d="M 16.20875 25.759375 L 16.280625 25.83125 " transform="matrix(20,0,0,20,110.7,-107)"/>
<path style="fill:none;stroke-width:0.05;stroke-linecap:butt;stroke-linejoin:miter;stroke:rgb(0%,0%,0%);stroke-opacity:1;stroke-miterlimit:10;" d="M 16.424375 25.903125 L 16.3525 25.975 " transform="matrix(20,0,0,20,110.7,-107)"/>
<path style="fill:none;stroke-width:0.05;stroke-linecap:butt;stroke-linejoin:miter;stroke:rgb(0%,0%,0%);stroke-opacity:1;stroke-miterlimit:10;" d="M 16.3525 25.975 L 16.424375 26.046875 " transform="matrix(20,0,0,20,110.7,-107)"/>
<path style="fill:none;stroke-width:0.05;stroke-linecap:butt;stroke-linejoin:miter;stroke:rgb(0%,0%,0%);stroke-opacity:1;stroke-miterlimit:10;" d="M 16.136875 25.903125 L 16.065 25.975 " transform="matrix(20,0,0,20,110.7,-107)"/>
<path style="fill:none;stroke-width:0.05;stroke-linecap:butt;stroke-linejoin:miter;stroke:rgb(0%,0%,0%);stroke-opacity:1;stroke-miterlimit:10;" d="M 16.065 25.975 L 16.136875 26.046875 " transform="matrix(20,0,0,20,110.7,-107)"/>
<path style="fill:none;stroke-width:0.05;stroke-linecap:butt;stroke-linejoin:miter;stroke:rgb(0%,0%,0%);stroke-opacity:1;stroke-miterlimit:10;" d="M 15.849375 25.903125 L 15.7775 25.975 " transform="matrix(20,0,0,20,110.7,-107)"/>
<path style="fill:none;stroke-width:0.05;stroke-linecap:butt;stroke-linejoin:miter;stroke:rgb(0%,0%,0%);stroke-opacity:1;stroke-miterlimit:10;" d="M 15.7775 25.975 L 15.849375 26.046875 " transform="matrix(20,0,0,20,110.7,-107)"/>
<path style="fill:none;stroke-width:0.05;stroke-linecap:butt;stroke-linejoin:miter;stroke:rgb(0%,0%,0%);stroke-opacity:1;stroke-miterlimit:10;" d="M 15.561875 25.903125 L 15.49 25.975 " transform="matrix(20,0,0,20,110.7,-107)"/>
<path style="fill:none;stroke-width:0.05;stroke-linecap:butt;stroke-linejoin:miter;stroke:rgb(0%,0%,0%);stroke-opacity:1;stroke-miterlimit:10;" d="M 15.49 25.975 L 15.561875 26.046875 " transform="matrix(20,0,0,20,110.7,-107)"/>
<path style="fill:none;stroke-width:0.05;stroke-linecap:butt;stroke-linejoin:miter;stroke:rgb(0%,0%,0%);stroke-opacity:1;stroke-miterlimit:10;" d="M 15.274375 25.903125 L 15.2025 25.975 " transform="matrix(20,0,0,20,110.7,-107)"/>
<path style="fill:none;stroke-width:0.05;stroke-linecap:butt;stroke-linejoin:miter;stroke:rgb(0%,0%,0%);stroke-opacity:1;stroke-miterlimit:10;" d="M 15.2025 25.975 L 15.274375 26.046875 " transform="matrix(20,0,0,20,110.7,-107)"/>
<path style="fill:none;stroke-width:0.05;stroke-linecap:butt;stroke-linejoin:miter;stroke:rgb(0%,0%,0%);stroke-opacity:1;stroke-miterlimit:10;" d="M 14.986875 25.903125 L 14.915 25.975 " transform="matrix(20,0,0,20,110.7,-107)"/>
<path style="fill:none;stroke-width:0.05;stroke-linecap:butt;stroke-linejoin:miter;stroke:rgb(0%,0%,0%);stroke-opacity:1;stroke-miterlimit:10;" d="M 14.915 25.975 L 14.986875 26.046875 " transform="matrix(20,0,0,20,110.7,-107)"/>
<path style="fill:none;stroke-width:0.05;stroke-linecap:butt;stroke-linejoin:miter;stroke:rgb(0%,0%,0%);stroke-opacity:1;stroke-miterlimit:10;" d="M 14.699375 25.903125 L 14.6275 25.975 " transform="matrix(20,0,0,20,110.7,-107)"/>
<path style="fill:none;stroke-width:0.05;stroke-linecap:butt;stroke-linejoin:miter;stroke:rgb(0%,0%,0%);stroke-opacity:1;stroke-miterlimit:10;" d="M 14.6275 25.975 L 14.699375 26.046875 " transform="matrix(20,0,0,20,110.7,-107)"/>
<path style="fill-rule:evenodd;fill:rgb(85.09804%,85.09804%,80.392158%);fill-opacity:1;stroke-width:0.1;stroke-linecap:butt;stroke-linejoin:miter;stroke:rgb(0%,0%,0%);stroke-opacity:1;stroke-miterlimit:10;" d="M 14.268125 25.975 L 14.555625 25.975 L 14.555625 26.046875 L 14.268125 26.046875 Z M 14.268125 25.975 " transform="matrix(20,0,0,20,110.7,-107)"/>
<path style="fill:none;stroke-width:0.05;stroke-linecap:butt;stroke-linejoin:miter;stroke:rgb(0%,0%,0%);stroke-opacity:1;stroke-miterlimit:10;" d="M 14.268125 25.975 L 14.555625 25.975 L 14.555625 26.046875 L 14.268125 26.046875 Z M 14.268125 25.975 " transform="matrix(20,0,0,20,110.7,-107)"/>
<path style="fill-rule:evenodd;fill:rgb(80.392158%,80.392158%,80.392158%);fill-opacity:1;stroke-width:0.1;stroke-linecap:butt;stroke-linejoin:miter;stroke:rgb(0%,0%,0%);stroke-opacity:1;stroke-miterlimit:10;" d="M 13.980625 25.759375 L 14.124375 25.903125 L 13.980625 26.046875 L 13.836875 25.903125 Z M 13.980625 25.759375 " transform="matrix(20,0,0,20,110.7,-107)"/>
<path style="fill:none;stroke-width:0.05;stroke-linecap:butt;stroke-linejoin:miter;stroke:rgb(0%,0%,0%);stroke-opacity:1;stroke-miterlimit:10;" d="M 13.980625 25.759375 L 14.124375 25.903125 L 13.980625 26.046875 L 13.836875 25.903125 Z M 13.980625 25.759375 " transform="matrix(20,0,0,20,110.7,-107)"/>
<path style="fill-rule:evenodd;fill:rgb(85.09804%,85.09804%,80.392158%);fill-opacity:1;stroke-width:0.1;stroke-linecap:butt;stroke-linejoin:miter;stroke:rgb(0%,0%,0%);stroke-opacity:1;stroke-miterlimit:10;" d="M 13.765 25.54375 L 16.64 25.54375 L 16.64 25.615625 L 13.765 25.615625 Z M 13.765 25.54375 " transform="matrix(20,0,0,20,110.7,-107)"/>
<path style="fill:none;stroke-width:0.05;stroke-linecap:butt;stroke-linejoin:miter;stroke:rgb(0%,0%,0%);stroke-opacity:1;stroke-miterlimit:10;" d="M 13.765 25.54375 L 16.64 25.54375 L 16.64 25.615625 L 13.765 25.615625 Z M 13.765 25.54375 " transform="matrix(20,0,0,20,110.7,-107)"/>
<path style="fill-rule:evenodd;fill:rgb(80.392158%,80.392158%,80.392158%);fill-opacity:1;stroke-width:0.1;stroke-linecap:butt;stroke-linejoin:miter;stroke:rgb(0%,0%,0%);stroke-opacity:1;stroke-miterlimit:10;" d="M 14.124375 25.54375 L 14.77125 25.54375 L 14.77125 25.615625 L 14.124375 25.615625 Z M 14.124375 25.54375 " transform="matrix(20,0,0,20,110.7,-107)"/>
<path style="fill:none;stroke-width:0.05;stroke-linecap:butt;stroke-linejoin:miter;stroke:rgb(0%,0%,0%);stroke-opacity:1;stroke-miterlimit:10;" d="M 14.124375 25.54375 L 14.77125 25.54375 L 14.77125 25.615625 L 14.124375 25.615625 Z M 14.124375 25.54375 " transform="matrix(20,0,0,20,110.7,-107)"/>
<g style="fill:rgb(0%,0%,0%);fill-opacity:1;">
  <use xlink:href="#glyph0-1" x="382.042969" y="426.005968"/>
  <use xlink:href="#glyph0-1" x="390.098524" y="426.005968"/>
  <use xlink:href="#glyph0-19" x="398.15408" y="426.005968"/>
  <use xlink:href="#glyph0-6" x="407.876302" y="426.005968"/>
  <use xlink:href="#glyph0-33" x="412.042969" y="426.005968"/>
  <use xlink:href="#glyph0-34" x="420.098524" y="426.005968"/>
  <use xlink:href="#glyph0-29" x="427.876302" y="426.005968"/>
  <use xlink:href="#glyph0-35" x="435.65408" y="426.005968"/>
  <use xlink:href="#glyph0-36" x="448.15408" y="426.005968"/>
  <use xlink:href="#glyph0-23" x="455.931858" y="426.005968"/>
</g>
<path style="fill-rule:evenodd;fill:rgb(100%,100%,100%);fill-opacity:1;stroke-width:0.1;stroke-linecap:butt;stroke-linejoin:miter;stroke:rgb(0%,0%,0%);stroke-opacity:1;stroke-miterlimit:10;" d="M 19.895078 16.134961 L 19.395078 16.884961 L 18.395078 16.884961 L 17.895078 16.134961 L 18.395078 15.384961 L 19.395078 15.384961 Z M 19.895078 16.134961 " transform="matrix(20,0,0,20,110.7,-107)"/>
<g style="fill:rgb(0%,0%,0%);fill-opacity:1;">
  <use xlink:href="#glyph1-1" x="476.941406" y="213.811903"/>
  <use xlink:href="#glyph1-2" x="484.719184" y="213.811903"/>
  <use xlink:href="#glyph1-3" x="492.496962" y="213.811903"/>
</g>
<path style="fill-rule:evenodd;fill:rgb(100%,100%,100%);fill-opacity:1;stroke-width:0.1;stroke-linecap:butt;stroke-linejoin:miter;stroke:rgb(0%,0%,0%);stroke-opacity:1;stroke-miterlimit:10;" d="M 19.500156 16.534961 L 19.000156 17.284961 L 18.000156 17.284961 L 17.500156 16.534961 L 18.000156 15.784961 L 19.000156 15.784961 Z M 19.500156 16.534961 " transform="matrix(20,0,0,20,110.7,-107)"/>
<g style="fill:rgb(0%,0%,0%);fill-opacity:1;">
  <use xlink:href="#glyph1-1" x="469.042969" y="221.811903"/>
  <use xlink:href="#glyph1-2" x="476.820747" y="221.811903"/>
  <use xlink:href="#glyph1-3" x="484.598524" y="221.811903"/>
</g>
<path style="fill-rule:evenodd;fill:rgb(100%,100%,100%);fill-opacity:1;stroke-width:0.1;stroke-linecap:butt;stroke-linejoin:miter;stroke:rgb(0%,0%,0%);stroke-opacity:1;stroke-miterlimit:10;" d="M 19.015 17.15 L 18.515 17.9 L 17.515 17.9 L 17.015 17.15 L 17.515 16.4 L 18.515 16.4 Z M 19.015 17.15 " transform="matrix(20,0,0,20,110.7,-107)"/>
<g style="fill:rgb(0%,0%,0%);fill-opacity:1;">
  <use xlink:href="#glyph1-1" x="459.339844" y="234.112684"/>
  <use xlink:href="#glyph1-2" x="467.117622" y="234.112684"/>
  <use xlink:href="#glyph1-3" x="474.895399" y="234.112684"/>
</g>
</g>
</svg>
